<?xml version="1.0" encoding="UTF-8" standalone="no"?>
<!-- Created with Inkscape (http://www.inkscape.org/) -->

<svg
   width="1920"
   height="1080"
   viewBox="0 0 1920 1080"
   version="1.1"
   id="svg5"
   inkscape:version="1.4 (e7c3feb100, 2024-10-09)"
   sodipodi:docname="results-calculation.svg"
   xmlns:inkscape="http://www.inkscape.org/namespaces/inkscape"
   xmlns:sodipodi="http://sodipodi.sourceforge.net/DTD/sodipodi-0.dtd"
   xmlns:xlink="http://www.w3.org/1999/xlink"
   xmlns="http://www.w3.org/2000/svg"
   xmlns:svg="http://www.w3.org/2000/svg">
  <sodipodi:namedview
     id="namedview7"
     pagecolor="#ffffff"
     bordercolor="#000000"
     borderopacity="0.25"
     inkscape:showpageshadow="true"
     inkscape:pageopacity="0.0"
     inkscape:pagecheckerboard="false"
     inkscape:deskcolor="#181818"
     inkscape:document-units="px"
     showgrid="false"
     inkscape:zoom="0.73605634"
     inkscape:cx="1125.5932"
     inkscape:cy="745.86682"
     inkscape:current-layer="layer1"
     showguides="false">
    <inkscape:grid
       id="grid28"
       units="px"
       originx="0"
       originy="0"
       spacingx="1"
       spacingy="1"
       empcolor="#0099e5"
       empopacity="0.30196078"
       color="#0099e5"
       opacity="0.14901961"
       empspacing="5"
       enabled="true"
       visible="false" />
  </sodipodi:namedview>
  <defs
     id="defs2">
    <linearGradient
       id="linearGradient153"
       inkscape:collect="always">
      <stop
         style="stop-color:#f8e45c;stop-opacity:1"
         offset="0"
         id="stop153" />
      <stop
         style="stop-color:#ffbe6f;stop-opacity:1"
         offset="1"
         id="stop154" />
    </linearGradient>
    <inkscape:path-effect
       effect="fillet_chamfer"
       id="path-effect149"
       is_visible="true"
       lpeversion="1"
       nodesatellites_param="F,0,0,1,0,26.549717,0,1 @ F,0,0,1,0,0,0,1 @ F,0,0,1,0,0,0,1 @ F,0,1,1,0,26.549717,0,1"
       radius="0"
       unit="px"
       method="auto"
       mode="F"
       chamfer_steps="1"
       flexible="false"
       use_knot_distance="true"
       apply_no_radius="true"
       apply_with_radius="true"
       only_selected="false"
       hide_knots="false" />
    <inkscape:path-effect
       effect="fillet_chamfer"
       id="path-effect147"
       is_visible="true"
       lpeversion="1"
       nodesatellites_param="F,0,0,1,0,26.549717,0,1 @ F,0,0,1,0,0,0,1 @ F,0,0,1,0,0,0,1 @ F,0,1,1,0,26.549717,0,1"
       radius="0"
       unit="px"
       method="auto"
       mode="F"
       chamfer_steps="1"
       flexible="false"
       use_knot_distance="true"
       apply_no_radius="true"
       apply_with_radius="true"
       only_selected="false"
       hide_knots="false" />
    <inkscape:path-effect
       effect="fillet_chamfer"
       id="path-effect145"
       is_visible="true"
       lpeversion="1"
       nodesatellites_param="F,0,0,1,0,0,0,1 @ F,0,0,1,0,36.102733,0,1 @ F,0,0,1,0,46.636476,0,1 @ F,0,0,1,0,0,0,1 @ F,0,1,1,0,46.636476,0,1 @ F,0,0,1,0,36.102733,0,1 @ F,0,0,1,0,0,0,1"
       radius="0"
       unit="px"
       method="auto"
       mode="F"
       chamfer_steps="1"
       flexible="false"
       use_knot_distance="true"
       apply_no_radius="true"
       apply_with_radius="true"
       only_selected="false"
       hide_knots="false" />
    <inkscape:path-effect
       effect="fillet_chamfer"
       id="path-effect96"
       is_visible="true"
       lpeversion="1"
       nodesatellites_param="F,0,0,1,0,26.549717,0,1 @ F,0,0,1,0,0,0,1 @ F,0,0,1,0,0,0,1 @ F,0,1,1,0,26.549717,0,1"
       radius="0"
       unit="px"
       method="auto"
       mode="F"
       chamfer_steps="1"
       flexible="false"
       use_knot_distance="true"
       apply_no_radius="true"
       apply_with_radius="true"
       only_selected="false"
       hide_knots="false" />
    <inkscape:path-effect
       effect="fillet_chamfer"
       id="path-effect94"
       is_visible="true"
       lpeversion="1"
       nodesatellites_param="F,0,0,1,0,26.549717,0,1 @ F,0,0,1,0,0,0,1 @ F,0,0,1,0,0,0,1 @ F,0,1,1,0,26.549717,0,1"
       radius="0"
       unit="px"
       method="auto"
       mode="F"
       chamfer_steps="1"
       flexible="false"
       use_knot_distance="true"
       apply_no_radius="true"
       apply_with_radius="true"
       only_selected="false"
       hide_knots="false" />
    <inkscape:path-effect
       effect="fillet_chamfer"
       id="path-effect93"
       is_visible="true"
       lpeversion="1"
       nodesatellites_param="F,0,0,1,0,0,0,1 @ F,0,0,1,0,36.102733,0,1 @ F,0,0,1,0,27.558703,0,1 @ F,0,0,1,0,0,0,1 @ F,0,0,1,0,24.697037,0,1 @ F,0,0,1,0,36.102733,0,1 @ F,0,0,1,0,0,0,1"
       radius="0"
       unit="px"
       method="auto"
       mode="F"
       chamfer_steps="1"
       flexible="false"
       use_knot_distance="true"
       apply_no_radius="true"
       apply_with_radius="true"
       only_selected="false"
       hide_knots="false" />
    <inkscape:path-effect
       effect="fillet_chamfer"
       id="path-effect91"
       is_visible="true"
       lpeversion="1"
       nodesatellites_param="F,0,0,1,0,0,0,1 @ F,0,0,1,0,36.102733,0,1 @ F,0,0,1,0,46.636476,0,1 @ F,0,0,1,0,0,0,1 @ F,0,1,1,0,46.636476,0,1 @ F,0,0,1,0,36.102733,0,1 @ F,0,0,1,0,0,0,1"
       radius="0"
       unit="px"
       method="auto"
       mode="F"
       chamfer_steps="1"
       flexible="false"
       use_knot_distance="true"
       apply_no_radius="true"
       apply_with_radius="true"
       only_selected="false"
       hide_knots="false" />
    <inkscape:path-effect
       effect="fillet_chamfer"
       id="path-effect86"
       is_visible="true"
       lpeversion="1"
       nodesatellites_param="F,0,0,1,0,0,0,1 @ F,0,0,1,0,36.102733,0,1 @ F,0,0,1,0,46.636476,0,1 @ F,0,0,1,0,0,0,1 @ F,0,1,1,0,46.636476,0,1 @ F,0,0,1,0,36.102733,0,1 @ F,0,0,1,0,0,0,1"
       radius="0"
       unit="px"
       method="auto"
       mode="F"
       chamfer_steps="1"
       flexible="false"
       use_knot_distance="true"
       apply_no_radius="true"
       apply_with_radius="true"
       only_selected="false"
       hide_knots="false" />
    <inkscape:path-effect
       effect="fillet_chamfer"
       id="path-effect80"
       is_visible="true"
       lpeversion="1"
       nodesatellites_param="F,0,0,1,0,0,0,1 @ F,0,0,1,0,36.102733,0,1 @ F,0,0,1,0,46.636476,0,1 @ F,0,0,1,0,0,0,1 @ F,0,1,1,0,46.636476,0,1 @ F,0,0,1,0,36.102733,0,1 @ F,0,0,1,0,0,0,1"
       radius="0"
       unit="px"
       method="auto"
       mode="F"
       chamfer_steps="1"
       flexible="false"
       use_knot_distance="true"
       apply_no_radius="true"
       apply_with_radius="true"
       only_selected="false"
       hide_knots="false" />
    <linearGradient
       inkscape:collect="always"
       xlink:href="#linearGradient153"
       id="linearGradient154"
       x1="2168.9067"
       y1="8.8817842e-16"
       x2="4039.5217"
       y2="1080"
       gradientUnits="userSpaceOnUse"
       gradientTransform="translate(-4064.2141)" />
  </defs>
  <g
     inkscape:label="Layer 1"
     inkscape:groupmode="layer"
     id="layer1">
    <rect
       style="fill:url(#linearGradient154);stroke-width:8;stroke-linecap:round"
       id="rect99"
       width="1920"
       height="1080"
       x="-1920"
       y="0"
       transform="scale(-1,1)" />
    <path
       id="path98"
       style="font-size:129.546px;line-height:1.2;font-family:'Adwaita Mono';-inkscape-font-specification:'Adwaita Mono';letter-spacing:0px;word-spacing:0px;fill:#000000;stroke-width:8;stroke-linecap:round"
       d="m 936.41729,503.54707 c -2.5045,0 -5.0516,0.21662 -7.6425,0.64844 -2.5046,0.43182 -4.8796,1.2093 -7.125,2.33203 -2.2455,1.12273 -4.3188,2.59065 -6.2188,4.4043 -1.8136,1.81364 -3.326,3.84243 -4.5351,6.08789 -1.1228,2.24546 -1.9003,4.66494 -2.3321,7.25586 -0.4318,2.50455 -0.6465,5.00911 -0.6465,7.51367 v 12.95312 c 0,2.50456 0.2147,5.05361 0.6465,7.64453 0.4318,2.50456 1.2093,4.87954 2.3321,7.125 1.2091,2.24547 2.7215,4.27425 4.5351,6.0879 1.9,1.81364 3.9733,3.28156 6.2188,4.40429 2.2454,1.12274 4.6204,1.90021 7.125,2.33203 2.5909,0.43182 5.138,0.64844 7.6425,0.64844 2.5046,0 5.0092,-0.21662 7.5137,-0.64844 2.5909,-0.43182 5.0085,-1.20929 7.2539,-2.33203 2.2455,-1.12273 4.2762,-2.59065 6.0899,-4.40429 1.9,-1.81365 3.4104,-3.84243 4.5332,-6.0879 1.2091,-2.24546 2.0291,-4.62044 2.4609,-7.125 0.4318,-2.59092 0.6484,-5.13997 0.6484,-7.64453 v -12.95312 c 0,-2.50456 -0.2166,-5.00912 -0.6484,-7.51367 -0.4318,-2.59092 -1.2518,-5.0104 -2.4609,-7.25586 -1.1228,-2.24546 -2.6332,-4.27425 -4.5332,-6.08789 -1.8137,-1.81365 -3.8444,-3.28157 -6.0899,-4.4043 -2.2454,-1.12273 -4.663,-1.90021 -7.2539,-2.33203 -2.5045,-0.43182 -5.0091,-0.64844 -7.5137,-0.64844 z m 104.80281,0 c -2.4182,0 -4.7932,0.12958 -7.125,0.38867 -2.3319,0.17273 -4.6198,0.60596 -6.8653,1.29688 -2.2454,0.60454 -4.4483,1.42457 -6.6074,2.46093 -2.1591,1.03637 -4.1453,2.28767 -5.959,3.75586 -1.8136,1.46819 -3.4556,3.15273 -4.9238,5.05274 -1.3818,1.90001 -2.5035,3.97328 -3.3672,6.21875 v -18.13672 h -10.75191 v 67.36328 h 10.75191 v -35.75391 c 0,-1.55455 0.1296,-3.06696 0.3887,-4.53515 0.3454,-1.55455 0.8638,-2.97798 1.5547,-4.27344 0.7773,-1.38182 1.6843,-2.63508 2.7207,-3.75781 1.1227,-1.20909 2.287,-2.24574 3.4961,-3.10938 1.2954,-0.86364 2.6357,-1.59661 4.0176,-2.20117 1.3818,-0.6909 2.8052,-1.25372 4.2734,-1.68555 1.5545,-0.51818 3.067,-0.94946 4.5351,-1.29492 1.5546,-0.34546 3.0651,-0.60461 4.5333,-0.77734 1.5545,-0.17273 3.1095,-0.30231 4.664,-0.38867 1.5546,-0.0864 3.1095,-0.12891 4.6641,-0.12891 z m -104.80281,9.58789 c 1.641,0 3.2385,0.17212 4.793,0.51758 1.6409,0.25909 3.1959,0.77741 4.6641,1.55469 1.4682,0.77727 2.7195,1.76941 3.7558,2.97851 1.1228,1.2091 2.0298,2.59193 2.7207,4.14649 0.6909,1.46818 1.1667,3.02314 1.4258,4.66406 0.2591,1.55455 0.3887,3.15205 0.3887,4.79297 v 12.95312 c 0,1.64092 -0.1296,3.28291 -0.3887,4.92383 -0.2591,1.55455 -0.7349,3.10951 -1.4258,4.66406 -0.6909,1.46819 -1.5979,2.80653 -2.7207,4.01563 -1.0363,1.20909 -2.2876,2.20123 -3.7558,2.97851 -1.4682,0.77728 -3.0232,1.34009 -4.6641,1.68555 -1.5545,0.25909 -3.152,0.38867 -4.793,0.38867 -1.6409,0 -3.2829,-0.12958 -4.9238,-0.38867 -1.5545,-0.34546 -3.065,-0.90827 -4.5332,-1.68555 -1.4682,-0.77728 -2.764,-1.76942 -3.8867,-2.97851 -1.0364,-1.2091 -1.8989,-2.54744 -2.5899,-4.01563 -0.6909,-1.55455 -1.1666,-3.10951 -1.4257,-4.66406 -0.2591,-1.64092 -0.3887,-3.28291 -0.3887,-4.92383 v -12.95312 c 0,-1.64092 0.1296,-3.23842 0.3887,-4.79297 0.2591,-1.64092 0.7348,-3.19588 1.4257,-4.66406 0.691,-1.55456 1.5535,-2.93739 2.5899,-4.14649 1.1227,-1.2091 2.4185,-2.20124 3.8867,-2.97851 1.4682,-0.77728 2.9787,-1.2956 4.5332,-1.55469 1.6409,-0.34546 3.2829,-0.51758 4.9238,-0.51758 z" />
    <path
       d="m 287.13209,571.94795 v -95.21631 h 10.7523 v 41.32517 h 33.4229 v -41.32517 h 10.7523 v 95.21631 h -10.7523 v -44.43428 h -33.4229 v 44.43428 z m 105.1914,1.03637 q -3.7568,0 -7.6432,-0.64773 -3.7568,-0.64773 -7.125,-2.33183 -3.3682,-1.6841 -6.2182,-4.40456 -2.7205,-2.72047 -4.5342,-6.08867 -1.6841,-3.36819 -2.3318,-7.12503 -0.6477,-3.88638 -0.6477,-7.64321 v -12.9546 q 0,-3.75684 0.6477,-7.51367 0.6477,-3.88638 2.3318,-7.25458 1.8137,-3.36819 4.5342,-6.08866 2.85,-2.72047 6.2182,-4.40456 3.3682,-1.6841 7.125,-2.33183 3.8864,-0.64773 7.6432,-0.64773 3.7568,0 7.5137,0.64773 3.8864,0.64773 7.2546,2.33183 3.3682,1.68409 6.0886,4.40456 2.85,2.72047 4.5341,6.08866 1.8137,3.3682 2.4614,7.25458 0.6477,3.75683 0.6477,7.51367 v 11.14095 h -46.3774 v 1.81365 q 0,2.46137 0.3886,4.92275 0.3886,2.46137 1.425,4.66365 1.0364,2.20228 2.7205,4.14547 1.6841,1.81365 3.8864,2.97956 2.2022,1.16592 4.5341,1.6841 2.4613,0.38864 4.9227,0.38864 1.9432,0 3.7568,-0.12955 1.9432,-0.12954 3.7569,-0.51818 1.8136,-0.51818 3.4977,-1.29546 1.8137,-0.77728 3.2387,-1.94319 1.425,-1.16592 2.3318,-2.85001 0.9068,-1.6841 1.0364,-3.62729 h 10.6227 q -0.1295,3.23865 -1.425,6.34775 -1.1659,2.97956 -3.3682,5.31139 -2.0727,2.33183 -4.9227,4.01593 -2.7205,1.55455 -5.8296,2.59092 -2.9795,0.90682 -6.2182,1.16591 -3.2386,0.38864 -6.4773,0.38864 z m -17.8773,-39.38199 h 35.7547 v -1.81364 q 0,-2.46138 -0.3887,-4.92275 -0.3886,-2.46137 -1.425,-4.66366 -1.0364,-2.20228 -2.7205,-4.01592 -1.6841,-1.94319 -3.8863,-3.10911 -2.0728,-1.16591 -4.5341,-1.55455 -2.4614,-0.51818 -4.9228,-0.51818 -2.4614,0 -4.9227,0.51818 -2.4614,0.38864 -4.6637,1.55455 -2.0727,1.16592 -3.7568,3.10911 -1.6841,1.81364 -2.7205,4.01592 -1.0364,2.20229 -1.425,4.66366 -0.3886,2.46137 -0.3886,4.92275 z m 122.9392,38.34562 h -10.8819 q -2.85,0 -5.8296,-0.51818 -2.85,-0.51819 -5.5704,-1.81365 -2.591,-1.29546 -4.7932,-3.36819 -2.0728,-2.07274 -3.3682,-4.66366 -1.2955,-2.72047 -1.8137,-5.57048 -0.3886,-2.97956 -0.3886,-5.95912 v -63.73663 h -20.7274 v -9.5864 h 31.3501 v 73.32303 q 0,2.46138 0.5182,4.79321 0.6478,2.33182 2.2023,4.14547 1.5546,1.81364 3.7568,2.59092 2.3319,0.77728 4.6637,0.77728 h 10.8819 z"
       id="path100"
       style="font-size:129.546px;line-height:1.2;font-family:'Adwaita Mono';-inkscape-font-specification:'Adwaita Mono';letter-spacing:0px;word-spacing:0px;fill:#000000;stroke-width:8;stroke-linecap:round" />
    <path
       style="font-size:129.546px;line-height:1.2;font-family:'Adwaita Mono';-inkscape-font-specification:'Adwaita Mono';letter-spacing:0px;word-spacing:0px;fill:#e01b24;fill-opacity:1;stroke-width:8;stroke-linecap:round"
       d="m 575.11299,571.94795 h -10.8818 q -2.8501,0 -5.8296,-0.51818 -2.85,-0.51819 -5.5705,-1.81365 -2.5909,-1.29546 -4.7932,-3.36819 -2.0727,-2.07274 -3.3682,-4.66366 -1.2955,-2.72047 -1.8136,-5.57048 -0.3887,-2.97956 -0.3887,-5.95912 v -63.73663 h -20.7273 v -9.5864 h 31.3501 v 73.32303 q 0,2.46138 0.5182,4.79321 0.6477,2.33182 2.2023,4.14547 1.5545,1.81364 3.7568,2.59092 2.3318,0.77728 4.6637,0.77728 h 10.8818 z m 50.3935,1.03637 q -3.7569,0 -7.6432,-0.64773 -3.7569,-0.64773 -7.1251,-2.33183 -3.3682,-1.6841 -6.2182,-4.40456 -2.7204,-2.72047 -4.5341,-6.08867 -1.6841,-3.36819 -2.3318,-7.12503 -0.6478,-3.88638 -0.6478,-7.64321 v -12.9546 q 0,-3.75684 0.6478,-7.51367 0.6477,-3.88638 2.3318,-7.25458 1.8137,-3.36819 4.5341,-6.08866 2.85,-2.72047 6.2182,-4.40456 3.3682,-1.6841 7.1251,-2.33183 3.8863,-0.64773 7.6432,-0.64773 3.7568,0 7.5136,0.64773 3.8864,0.64773 7.2546,2.33183 3.3682,1.68409 6.0887,4.40456 2.85,2.72047 4.5341,6.08866 1.8136,3.3682 2.4614,7.25458 0.6477,3.75683 0.6477,7.51367 v 12.9546 q 0,3.75683 -0.6477,7.64321 -0.6478,3.75684 -2.4614,7.12503 -1.6841,3.3682 -4.5341,6.08867 -2.7205,2.72046 -6.0887,4.40456 -3.3682,1.6841 -7.2546,2.33183 -3.7568,0.64773 -7.5136,0.64773 z m 0,-9.58641 q 2.4613,0 4.7932,-0.38863 2.4613,-0.51819 4.6636,-1.6841 2.2023,-1.16592 3.7569,-2.97956 1.6841,-1.81365 2.7204,-4.01593 1.0364,-2.33183 1.425,-4.66365 0.3887,-2.46138 0.3887,-4.92275 v -12.9546 q 0,-2.46138 -0.3887,-4.7932 -0.3886,-2.46138 -1.425,-4.66366 -1.0363,-2.33183 -2.7204,-4.14547 -1.5546,-1.81365 -3.7569,-2.97956 -2.2023,-1.16591 -4.6636,-1.55455 -2.3319,-0.51819 -4.7932,-0.51819 -2.4614,0 -4.9228,0.51819 -2.3318,0.38864 -4.5341,1.55455 -2.2023,1.16591 -3.8864,2.97956 -1.5545,1.81364 -2.5909,4.14547 -1.0364,2.20228 -1.425,4.66366 -0.3886,2.33182 -0.3886,4.7932 v 12.9546 q 0,2.46137 0.3886,4.92275 0.3886,2.33182 1.425,4.66365 1.0364,2.20228 2.5909,4.01593 1.6841,1.81364 3.8864,2.97956 2.2023,1.16591 4.5341,1.6841 2.4614,0.38863 4.9228,0.38863 z"
       id="path101" />
    <path
       d="m 698.69999,599.80034 -7.7727,-5.82957 q 4.1454,-4.66366 7.5136,-9.8455 3.4978,-5.18184 5.1819,-11.14095 h -0.5182 q -1.9432,0 -4.0159,-0.64773 -1.9432,-0.64773 -3.3682,-2.07274 -1.425,-1.425 -2.0728,-3.36819 -0.5182,-1.94319 -0.5182,-4.01593 0,-2.07274 0.5182,-4.01593 0.6478,-1.94319 2.0728,-3.36819 1.5545,-1.55456 3.4977,-2.07274 1.9432,-0.64773 4.0159,-0.64773 2.0728,0 4.1455,0.64773 2.0727,0.64773 3.4977,2.20228 1.4251,1.42501 1.9432,3.49775 0.5182,2.07273 0.5182,4.14547 0,5.05229 -1.1659,9.97504 -1.1659,4.92275 -3.1091,9.45686 -1.9432,4.66365 -4.6637,8.93867 -2.5909,4.27502 -5.7,8.1614 z m 179.4213,-27.85239 h -9.7159 l -9.716,-53.89114 -9.7159,53.89114 h -9.716 l -13.0841,-67.36392 h 10.2341 l 7.9023,52.72522 9.4569,-52.72522 h 9.8455 l 9.4568,52.72522 7.9023,-52.72522 h 10.2342 z"
       id="path102"
       style="font-size:129.546px;line-height:1.2;font-family:'Adwaita Mono';-inkscape-font-specification:'Adwaita Mono';letter-spacing:0px;word-spacing:0px;fill:#000000;stroke-width:8;stroke-linecap:round" />
    <path
       id="path103"
       style="font-size:129.546px;line-height:1.2;font-family:'Adwaita Mono';-inkscape-font-specification:'Adwaita Mono';letter-spacing:0px;word-spacing:0px;fill:#c64600;fill-opacity:0.34903371;stroke-width:8;stroke-linecap:round"
       d="m 1065.8334,476.73066 v 9.58789 h 20.7285 v 63.73633 c 0,1.98638 0.1296,3.97261 0.3886,5.95899 0.3455,1.9 0.9489,3.75666 1.8125,5.57031 0.8637,1.72728 1.9874,3.28224 3.3692,4.66406 1.4682,1.38182 3.0657,2.50355 4.793,3.36719 1.8136,0.86364 3.6703,1.46899 5.5703,1.81445 1.9863,0.34546 3.93,0.51758 5.83,0.51758 h 10.8809 v -9.58594 h -10.8809 c -1.5545,0 -3.1095,-0.25915 -4.664,-0.77734 -1.4682,-0.51819 -2.7215,-1.3827 -3.7578,-2.5918 -1.0364,-1.2091 -1.7694,-2.58998 -2.2012,-4.14453 -0.3455,-1.55455 -0.5195,-3.15205 -0.5195,-4.79297 v -73.32422 z m 120.4784,0 v 40.9375 c -0.7773,-2.07273 -1.901,-4.01643 -3.3691,-5.83007 -1.3819,-1.90001 -3.0219,-3.49751 -4.9219,-4.79297 -1.9,-1.29546 -4.0158,-2.20252 -6.3476,-2.72071 -2.2455,-0.51818 -4.5354,-0.77734 -6.8672,-0.77734 -2.3318,0 -4.6623,0.30366 -6.9942,0.9082 -2.2454,0.51819 -4.3187,1.42329 -6.2187,2.71875 -1.9,1.29546 -3.5846,2.89492 -5.0528,4.79493 -1.3818,1.9 -2.5035,3.92879 -3.3671,6.08789 -0.7773,2.1591 -1.3401,4.4045 -1.6856,6.73632 -0.2591,2.33184 -0.3887,4.66427 -0.3887,6.9961 v 12.95312 c 0,2.33183 0.1296,4.66427 0.3887,6.9961 0.3455,2.33182 0.9083,4.57723 1.6856,6.73633 0.8636,2.1591 1.9853,4.18983 3.3671,6.08984 1.4682,1.90001 3.1528,3.49751 5.0528,4.79297 1.9,1.29546 3.9733,2.20251 6.2187,2.7207 2.3319,0.60455 4.6624,0.90625 6.9942,0.90625 2.3318,0 4.6217,-0.25916 6.8672,-0.77734 2.3318,-0.51818 4.4476,-1.42525 6.3476,-2.72071 1.9,-1.29546 3.54,-2.85041 4.9219,-4.66406 1.4681,-1.90001 2.5918,-3.88624 3.3691,-5.95898 v 13.08398 h 10.752 v -95.2168 z m 55.7051,0 v 61.53516 h 10.6231 v -61.53516 z m -72.9355,36.4043 c 1.6409,0 3.2384,0.17212 4.7929,0.51758 1.641,0.25909 3.1533,0.81995 4.5352,1.68359 1.3818,0.77728 2.5906,1.77138 3.6269,2.98047 1.1228,1.2091 1.9872,2.54744 2.5918,4.01563 0.6909,1.46818 1.1222,3.02314 1.295,4.66406 0.2591,1.55455 0.3886,3.15205 0.3886,4.79297 v 12.95312 c 0,1.64092 -0.1295,3.28291 -0.3886,4.92383 -0.1728,1.55455 -0.6041,3.06501 -1.295,4.5332 -0.6046,1.46819 -1.469,2.80849 -2.5918,4.01758 -1.0363,1.2091 -2.2451,2.24378 -3.6269,3.10742 -1.3819,0.77728 -2.8942,1.34009 -4.5352,1.68555 -1.5545,0.25909 -3.152,0.38867 -4.7929,0.38867 -1.6409,0 -3.281,-0.12958 -4.9219,-0.38867 -1.5545,-0.34546 -3.0224,-0.90827 -4.4043,-1.68555 -1.3818,-0.86364 -2.6351,-1.89832 -3.7578,-3.10742 -1.0364,-1.20909 -1.899,-2.54939 -2.5899,-4.01758 -0.6046,-1.46819 -1.0378,-2.97865 -1.2968,-4.5332 -0.1728,-1.64092 -0.2579,-3.28291 -0.2579,-4.92383 v -12.95312 c 0,-1.64092 0.085,-3.23842 0.2579,-4.79297 0.259,-1.64092 0.6922,-3.19588 1.2968,-4.66406 0.6909,-1.46819 1.5535,-2.80653 2.5899,-4.01563 1.1227,-1.20909 2.376,-2.20319 3.7578,-2.98047 1.3819,-0.86364 2.8498,-1.4245 4.4043,-1.68359 1.6409,-0.34546 3.281,-0.51758 4.9219,-0.51758 z m 78.2461,41.58399 c -1.2091,0 -2.4179,0.17212 -3.627,0.51757 -1.2091,0.34546 -2.2457,0.99336 -3.1094,1.94336 -0.8636,0.86364 -1.5115,1.90028 -1.9433,3.10938 -0.3454,1.12273 -0.5176,2.28895 -0.5176,3.49805 0,1.29545 0.1722,2.54675 0.5176,3.75585 0.4318,1.12273 1.0797,2.15937 1.9433,3.10938 0.8637,0.86364 1.9003,1.469 3.1094,1.81445 1.2091,0.34546 2.4179,0.51758 3.627,0.51758 1.2091,0 2.4178,-0.17212 3.6269,-0.51758 1.2091,-0.34545 2.2458,-0.95081 3.1094,-1.81445 0.8636,-0.95001 1.469,-1.98665 1.8144,-3.10938 0.3454,-1.2091 0.5176,-2.4604 0.5176,-3.75585 0,-1.2091 -0.1722,-2.37532 -0.5176,-3.49805 -0.3454,-1.2091 -0.9508,-2.24574 -1.8144,-3.10938 -0.8636,-0.95 -1.9003,-1.5979 -3.1094,-1.94336 -1.2091,-0.34545 -2.4178,-0.51757 -3.6269,-0.51757 z" />
    <path
       d="m 339.78219,655.18631 c 0.7032,-0.7969 1.0469,-1.8438 0.9844,-2.8907 -0.078,-1.0625 -0.5625,-2.0469 -1.3594,-2.75004 -0.7969,-0.70314 -1.8438,-1.0625 -2.9063,-0.98438 -1.0625,0.0624 -2.0469,0.5625 -2.75,1.35938 l -25.1879,28.78173 -8.9689,-8.98453 c -1.5625,-1.5625 -4.0938,-1.5625 -5.6563,0 -0.7501,0.75002 -1.1719,1.78128 -1.1719,2.84382 0,1.06247 0.4218,2.07813 1.1719,2.82815 l 12.0001,12.00018 c 0.7813,0.78126 1.8594,1.20314 2.9688,1.1719 1.0938,-0.0468 2.1407,-0.53124 2.8751,-1.37502 z m 0,0"
       fill="#222222"
       id="path104"
       style="fill:#000000;fill-opacity:1;stroke-width:1" />
    <path
       d="m 417.36379,655.18631 c 0.7031,-0.7969 1.0469,-1.8438 0.9844,-2.8907 -0.078,-1.0625 -0.5625,-2.0469 -1.3594,-2.75004 -0.7969,-0.70314 -1.8438,-1.0625 -2.9063,-0.98438 -1.0625,0.0624 -2.0469,0.5625 -2.7501,1.35938 l -25.1878,28.78173 -8.9689,-8.98453 c -1.5625,-1.5625 -4.0939,-1.5625 -5.6564,0 -0.75,0.75002 -1.1719,1.78128 -1.1719,2.84382 0,1.06247 0.4219,2.07813 1.1719,2.82815 l 12.0002,12.00018 c 0.7813,0.78126 1.8594,1.20314 2.9688,1.1719 1.0938,-0.0468 2.1407,-0.53124 2.8751,-1.37502 z m 0,0"
       fill="#222222"
       id="path105"
       style="fill:#000000;fill-opacity:1;stroke-width:1" />
    <path
       d="m 494.94539,655.18631 c 0.7031,-0.7969 1.0469,-1.8438 0.9844,-2.8907 -0.078,-1.0625 -0.5626,-2.0469 -1.3594,-2.75004 -0.7969,-0.70314 -1.8438,-1.0625 -2.9063,-0.98438 -1.0625,0.0624 -2.047,0.5625 -2.7501,1.35938 l -25.1879,28.78173 -8.9689,-8.98453 c -1.5625,-1.5625 -4.0938,-1.5625 -5.6563,0 -0.75,0.75002 -1.1719,1.78128 -1.1719,2.84382 0,1.06247 0.4219,2.07813 1.1719,2.82815 l 12.0002,12.00018 c 0.7812,0.78126 1.8594,1.20314 2.9688,1.1719 1.0937,-0.0468 2.1406,-0.53124 2.875,-1.37502 z m 0,0"
       fill="#222222"
       id="path106"
       style="fill:#000000;fill-opacity:1;stroke-width:1" />
    <path
       d="m 727.67419,655.18631 c 0.7031,-0.7969 1.0469,-1.8438 0.9844,-2.8907 -0.078,-1.0625 -0.5625,-2.0469 -1.3594,-2.75004 -0.7969,-0.70314 -1.8438,-1.0625 -2.9063,-0.98438 -1.0625,0.0624 -2.0469,0.5625 -2.7501,1.35938 l -25.1879,28.78173 -8.9689,-8.98453 c -1.5625,-1.5625 -4.0938,-1.5625 -5.6563,0 -0.75,0.75002 -1.1719,1.78128 -1.1719,2.84382 0,1.06247 0.4219,2.07813 1.1719,2.82815 l 12.0002,12.00018 c 0.7812,0.78126 1.8594,1.20314 2.9688,1.1719 1.0937,-0.0468 2.1406,-0.53124 2.875,-1.37502 z m 0,0"
       fill="#222222"
       id="path107"
       style="fill:#000000;fill-opacity:1;stroke-width:1" />
    <path
       d="m 882.83739,791.36558 c 0.7031,-0.7969 1.0469,-1.8438 0.9844,-2.8907 -0.078,-1.0625 -0.5626,-2.0469 -1.3594,-2.75004 -0.7969,-0.70314 -1.8438,-1.0625 -2.9063,-0.98438 -1.0625,0.0624 -2.047,0.5625 -2.7501,1.35938 l -25.1879,28.78173 -8.9689,-8.98453 c -1.5625,-1.5625 -4.0938,-1.5625 -5.6563,0 -0.75,0.75002 -1.1719,1.78128 -1.1719,2.84382 0,1.06247 0.4219,2.07813 1.1719,2.82815 l 12.0002,12.00018 c 0.7812,0.78126 1.8594,1.20314 2.9688,1.1719 1.0937,-0.0468 2.1406,-0.53124 2.875,-1.37502 z m 0,0"
       fill="#222222"
       id="path108"
       style="fill:#000000;fill-opacity:1;stroke-width:1" />
    <path
       d="m 805.25579,655.18631 c 0.7031,-0.7969 1.0468,-1.8438 0.9844,-2.8907 -0.078,-1.0625 -0.5626,-2.0469 -1.3594,-2.75004 -0.7969,-0.70314 -1.8438,-1.0625 -2.9064,-0.98438 -1.0625,0.0624 -2.0469,0.5625 -2.75,1.35938 l -25.1879,28.78173 -8.9689,-8.98453 c -1.5625,-1.5625 -4.0938,-1.5625 -5.6563,0 -0.75,0.75002 -1.1719,1.78128 -1.1719,2.84382 0,1.06247 0.4219,2.07813 1.1719,2.82815 l 12.0002,12.00018 c 0.7812,0.78126 1.8594,1.20314 2.9688,1.1719 1.0937,-0.0468 2.1406,-0.53124 2.875,-1.37502 z m 0,0"
       fill="#222222"
       id="path109"
       style="fill:#000000;fill-opacity:1;stroke-width:1" />
    <path
       d="m 529.51059,640.16275 c -1.0625,0 -2.0781,0.42188 -2.8281,1.17188 -1.5625,1.56248 -1.5625,4.09376 0,5.65624 l 17.1719,17.17188 -17.1719,17.17187 c -1.5625,1.56248 -1.5625,4.09376 0,5.65624 1.5625,1.56252 4.0937,1.56252 5.6562,0 l 17.1719,-17.17188 17.1719,17.17188 c 1.5625,1.56252 4.0937,1.56252 5.6562,0 1.5625,-1.56248 1.5625,-4.09376 0,-5.65624 l -17.1719,-17.17187 17.1719,-17.17188 c 1.5625,-1.56248 1.5625,-4.09376 0,-5.65624 -0.75,-0.75 -1.7656,-1.17188 -2.8281,-1.17188 -1.0625,0 -2.0781,0.42188 -2.8281,1.17188 l -17.1719,17.17188 -17.1719,-17.17188 c -0.75,-0.75 -1.7656,-1.17188 -2.8281,-1.17188 z m 0,0"
       fill="#222222"
       id="path110"
       style="fill:#e01b24;fill-opacity:1;stroke-width:1" />
    <path
       d="m 607.08419,640.16275 c -1.0625,0 -2.0781,0.42188 -2.8281,1.17188 -1.5625,1.56248 -1.5625,4.09376 0,5.65624 l 17.1719,17.17188 -17.1719,17.17187 c -1.5625,1.56248 -1.5625,4.09376 0,5.65624 1.5625,1.56252 4.0937,1.56252 5.6562,0 l 17.1719,-17.17188 17.1719,17.17188 c 1.5625,1.56252 4.0937,1.56252 5.6562,0 1.5625,-1.56248 1.5625,-4.09376 0,-5.65624 l -17.1719,-17.17187 17.1719,-17.17188 c 1.5625,-1.56248 1.5625,-4.09376 0,-5.65624 -0.75,-0.75 -1.7656,-1.17188 -2.8281,-1.17188 -1.0625,0 -2.0781,0.42188 -2.8281,1.17188 l -17.1719,17.17188 -17.1719,-17.17188 c -0.75,-0.75 -1.7656,-1.17188 -2.8281,-1.17188 z m 0,0"
       fill="#222222"
       id="path111"
       style="fill:#e01b24;fill-opacity:1;stroke-width:1" />
    <path
       style="fill:#e01b24;fill-opacity:1;stroke-linecap:round"
       d="m 554.35679,581.92988 -15.5137,16.99024 a 4,4 0 0 0 0.2559,5.65234 4,4 0 0 0 5.6523,-0.25781 l 9.6055,-10.51953 12.5605,13.75586 12.5606,-13.75586 12.5586,13.75586 12.5605,-13.75586 12.5606,13.75586 12.5586,-13.75586 12.5605,13.75586 15.5137,-16.99024 a 4,4 0 0 0 -0.2559,-5.65234 4,4 0 0 0 -5.6523,0.25781 l -9.6055,10.51953 -12.5605,-13.75586 -12.5586,13.75586 -12.5606,-13.75586 -12.5605,13.75586 -12.5606,-13.75586 -12.5605,13.75586 z"
       id="path115" />
    <path
       d="m 832.97869,640.16276 c -1.0625,0 -2.0781,0.42188 -2.8281,1.17188 -1.5625,1.56248 -1.5625,4.09376 0,5.65624 l 17.1719,17.17188 -17.1719,17.17185 c -1.5625,1.56248 -1.5625,4.09376 0,5.65624 1.5625,1.56252 4.0938,1.56252 5.6562,0 l 17.1719,-17.17187 17.1719,17.17187 c 1.5625,1.56252 4.0938,1.56252 5.6562,0 1.5626,-1.56248 1.5626,-4.09376 0,-5.65624 l -17.1718,-17.17185 17.1718,-17.17188 c 1.5626,-1.56248 1.5626,-4.09376 0,-5.65624 -0.75,-0.75 -1.7656,-1.17188 -2.8281,-1.17188 -1.0625,0 -2.0781,0.42188 -2.8281,1.17188 l -17.1719,17.17188 -17.1719,-17.17188 c -0.75,-0.75 -1.7656,-1.17188 -2.8281,-1.17188 z m 0,0"
       fill="#222222"
       id="path118"
       style="fill:#e01b24;fill-opacity:1;stroke-width:1" />
    <path
       d="m 849.06809,705.9403 c -8.2187,0 -14.8125,6.01564 -19.7343,11.93746 -2.4532,2.96876 -4.4844,6.03128 -5.9375,8.71876 -0.7344,1.34376 -1.3282,2.59376 -1.7657,3.78124 -0.4218,1.17188 -0.7968,2.14064 -0.7343,3.71874 0.1092,2.81252 1.1718,4.64064 2.6406,7.34375 1.4687,2.68746 3.4687,5.71874 5.8906,8.64062 4.8594,5.87498 11.3125,11.78122 19.4062,11.79682 l 20.2187,0.0624 c 8.7969,0.032 16.0156,-7.21876 16.0156,-15.99998 v -23.99993 c 0,-8.78122 -7.2187,-15.99998 -15.9999,-15.99998 z m 0,8 h 20 c 4.375,0 8,3.62498 8,7.99998 v 23.99995 c 0,4.375 -3.625,8.01562 -8,7.99998 l -20.2031,-0.0624 c -3.6875,0 -9.125,-3.875 -13.2656,-8.87498 -2.0782,-2.5156 -3.8438,-5.18747 -5.0469,-7.40621 -0.9062,-1.67188 -1.4219,-3.375 -1.5937,-3.81248 0.032,-0.1564 0.078,-0.3748 0.172,-0.625 0.2656,-0.68752 0.7031,-1.65628 1.2968,-2.75 1.1876,-2.18752 2.9688,-4.87498 5.0626,-7.40628 4.2186,-5.07822 9.7967,-9.06258 13.5779,-9.06258 z m 0.032,8.06246 c -1.0469,0 -2.0781,0.40628 -2.8281,1.15628 -1.5469,1.56248 -1.5469,4.10936 0,5.65624 l 5.1719,5.18746 -5.1719,5.15628 c -1.5469,1.56248 -1.5469,4.10935 0,5.65621 1.5625,1.56248 4.0937,1.56248 5.6562,0 l 5.1719,-5.15621 5.1719,5.15621 c 1.5625,1.56248 4.0937,1.56248 5.6562,0 1.5625,-1.54686 1.5625,-4.09373 0,-5.65621 l -5.1719,-5.15628 5.1719,-5.18746 c 1.5625,-1.54688 1.5625,-4.09376 0,-5.65624 -0.75,-0.75 -1.7656,-1.15628 -2.8281,-1.15628 -1.0469,0 -2.0781,0.40628 -2.8281,1.15628 l -5.1719,5.18748 -5.1719,-5.18748 c -0.75,-0.75 -1.7656,-1.15628 -2.8281,-1.15628 z m 0,0"
       fill="#222222"
       id="path119"
       style="fill:#000000;fill-opacity:1;stroke-width:1" />
    <path
       id="path120"
       style="font-size:129.546px;line-height:1.2;font-family:'Adwaita Mono';-inkscape-font-specification:'Adwaita Mono';letter-spacing:0px;word-spacing:0px;fill:#000000;fill-opacity:1;stroke-width:8;stroke-linecap:round"
       d="m 936.41729,503.54707 c -2.5045,0 -5.0516,0.21662 -7.6425,0.64844 -2.5046,0.43182 -4.8796,1.2093 -7.125,2.33203 -2.2455,1.12273 -4.3188,2.59065 -6.2188,4.4043 -1.8136,1.81364 -3.326,3.84243 -4.5351,6.08789 -1.1228,2.24546 -1.9003,4.66494 -2.3321,7.25586 -0.4318,2.50455 -0.6465,5.00911 -0.6465,7.51367 v 12.95312 c 0,2.50456 0.2147,5.05361 0.6465,7.64453 0.4318,2.50456 1.2093,4.87954 2.3321,7.125 1.2091,2.24547 2.7215,4.27425 4.5351,6.0879 1.9,1.81364 3.9733,3.28156 6.2188,4.40429 2.2454,1.12274 4.6204,1.90021 7.125,2.33203 2.5909,0.43182 5.138,0.64844 7.6425,0.64844 2.5046,0 5.0092,-0.21662 7.5137,-0.64844 2.5909,-0.43182 5.0085,-1.20929 7.2539,-2.33203 2.2455,-1.12273 4.2762,-2.59065 6.0899,-4.40429 1.9,-1.81365 3.4104,-3.84243 4.5332,-6.0879 1.2091,-2.24546 2.0291,-4.62044 2.4609,-7.125 0.4318,-2.59092 0.6484,-5.13997 0.6484,-7.64453 v -12.95312 c 0,-2.50456 -0.2166,-5.00912 -0.6484,-7.51367 -0.4318,-2.59092 -1.2518,-5.0104 -2.4609,-7.25586 -1.1228,-2.24546 -2.6332,-4.27425 -4.5332,-6.08789 -1.8137,-1.81365 -3.8444,-3.28157 -6.0899,-4.4043 -2.2454,-1.12273 -4.663,-1.90021 -7.2539,-2.33203 -2.5045,-0.43182 -5.0091,-0.64844 -7.5137,-0.64844 z m 104.80281,0 c -2.4182,0 -4.7932,0.12958 -7.125,0.38867 -2.3319,0.17273 -4.6198,0.60596 -6.8653,1.29688 -2.2454,0.60454 -4.4483,1.42457 -6.6074,2.46093 -2.1591,1.03637 -4.1453,2.28767 -5.959,3.75586 -1.8136,1.46819 -3.4556,3.15273 -4.9238,5.05274 -1.3818,1.90001 -2.5035,3.97328 -3.3672,6.21875 v -18.13672 h -10.75191 v 67.36328 h 10.75191 v -35.75391 c 0,-1.55455 0.1296,-3.06696 0.3887,-4.53515 0.3454,-1.55455 0.8638,-2.97798 1.5547,-4.27344 0.7773,-1.38182 1.6843,-2.63508 2.7207,-3.75781 1.1227,-1.20909 2.287,-2.24574 3.4961,-3.10938 1.2954,-0.86364 2.6357,-1.59661 4.0176,-2.20117 1.3818,-0.6909 2.8052,-1.25372 4.2734,-1.68555 1.5545,-0.51818 3.067,-0.94946 4.5351,-1.29492 1.5546,-0.34546 3.0651,-0.60461 4.5333,-0.77734 1.5545,-0.17273 3.1095,-0.30231 4.664,-0.38867 1.5546,-0.0864 3.1095,-0.12891 4.6641,-0.12891 z m -104.80281,9.58789 c 1.641,0 3.2385,0.17212 4.793,0.51758 1.6409,0.25909 3.1959,0.77741 4.6641,1.55469 1.4682,0.77727 2.7195,1.76941 3.7558,2.97851 1.1228,1.2091 2.0298,2.59193 2.7207,4.14649 0.6909,1.46818 1.1667,3.02314 1.4258,4.66406 0.2591,1.55455 0.3887,3.15205 0.3887,4.79297 v 12.95312 c 0,1.64092 -0.1296,3.28291 -0.3887,4.92383 -0.2591,1.55455 -0.7349,3.10951 -1.4258,4.66406 -0.6909,1.46819 -1.5979,2.80653 -2.7207,4.01563 -1.0363,1.20909 -2.2876,2.20123 -3.7558,2.97851 -1.4682,0.77728 -3.0232,1.34009 -4.6641,1.68555 -1.5545,0.25909 -3.152,0.38867 -4.793,0.38867 -1.6409,0 -3.2829,-0.12958 -4.9238,-0.38867 -1.5545,-0.34546 -3.065,-0.90827 -4.5332,-1.68555 -1.4682,-0.77728 -2.764,-1.76942 -3.8867,-2.97851 -1.0364,-1.2091 -1.8989,-2.54744 -2.5899,-4.01563 -0.6909,-1.55455 -1.1666,-3.10951 -1.4257,-4.66406 -0.2591,-1.64092 -0.3887,-3.28291 -0.3887,-4.92383 v -12.95312 c 0,-1.64092 0.1296,-3.23842 0.3887,-4.79297 0.2591,-1.64092 0.7348,-3.19588 1.4257,-4.66406 0.691,-1.55456 1.5535,-2.93739 2.5899,-4.14649 1.1227,-1.2091 2.4185,-2.20124 3.8867,-2.97851 1.4682,-0.77728 2.9787,-1.2956 4.5332,-1.55469 1.6409,-0.34546 3.2829,-0.51758 4.9238,-0.51758 z" />
    <g
       id="g1">
      <path
         d="m 314.18549,408.9489 v 34.39201 h -4.01624 v -30.09878 h -0.0231 l -8.56338,5.67815 v -4.24707 l 8.58647,-5.72431 z"
         id="text109"
         style="font-size:47.2717px;line-height:1.2;font-family:'Adwaita Sans';-inkscape-font-specification:'Adwaita Sans';letter-spacing:0px;word-spacing:0px;stroke-width:8;stroke-linecap:round"
         aria-label="1" />
      <path
         d="m 381.53081,443.34091 v -3.48536 l 12.2334,-11.17164 q 2.19278,-2.00812 3.55461,-3.53152 1.38491,-1.52341 2.0312,-2.97757 0.6463,-1.45416 0.6463,-3.20838 0,-2.12353 -0.85403,-3.67002 -0.85403,-1.54649 -2.4236,-2.37743 -1.56957,-0.83095 -3.76235,-0.83095 -2.35435,0 -4.01625,0.99252 -1.63881,0.96944 -2.51592,2.76983 -0.87711,1.7773 -0.87711,4.22398 h -3.87776 q 0,-3.4392 1.38491,-6.07053 1.408,-2.63134 3.947,-4.10858 2.53901,-1.50032 5.93205,-1.50032 3.23146,0 5.70123,1.33875 2.46976,1.31566 3.87775,3.67002 1.408,2.33127 1.408,5.40116 0,2.21586 -0.80787,4.17782 -0.80786,1.93888 -2.46976,3.90084 -1.63881,1.96196 -4.17782,4.27015 l -9.302,8.44797 v 0.0462 h 16.96518 v 3.6931 z"
         id="text111"
         style="font-size:47.2717px;line-height:1.2;font-family:'Adwaita Sans';-inkscape-font-specification:'Adwaita Sans';letter-spacing:0px;word-spacing:0px;stroke-width:8;stroke-linecap:round"
         aria-label="2" />
      <path
         d="m 472.97361,443.89488 q -3.55461,0 -6.27827,-1.43108 -2.72366,-1.45416 -4.27015,-4.01625 -1.54649,-2.56209 -1.54649,-5.90896 h 4.20091 q 0,2.4236 0.92327,4.15474 0.92328,1.73114 2.6775,2.65442 1.75422,0.90019 4.2009,0.90019 2.35436,0 4.13166,-0.80787 1.80039,-0.80786 2.79291,-2.2851 1.0156,-1.50033 1.0156,-3.50845 0,-1.84655 -1.08485,-3.20838 -1.06176,-1.36183 -2.97756,-2.12354 -1.89271,-0.7617 -4.43172,-0.7617 h -2.76983 v -3.6931 h 2.76983 q 2.21586,0 3.87775,-0.69246 1.68498,-0.69245 2.60826,-1.93887 0.94636,-1.26951 0.94636,-2.95449 0,-1.93887 -0.87712,-3.32379 -0.87711,-1.40799 -2.46976,-2.14661 -1.56957,-0.76171 -3.71618,-0.76171 -2.19278,0 -3.78543,0.83095 -1.56957,0.83095 -2.4236,2.37744 -0.85403,1.54648 -0.85403,3.71618 h -4.01625 q 0,-3.11605 1.408,-5.49349 1.43108,-2.40051 3.92392,-3.73926 2.51592,-1.33875 5.77047,-1.33875 3.16222,0 5.67814,1.24642 2.51593,1.24642 3.97009,3.41612 1.45416,2.1697 1.45416,4.98569 0,2.60825 -1.6619,4.63945 -1.63881,2.00813 -4.52405,2.88524 v 0.0693 q 2.19278,0.36931 3.80851,1.50032 1.63882,1.13101 2.53901,2.81599 0.90019,1.66189 0.90019,3.6931 0,3.00065 -1.56956,5.33192 -1.54649,2.30818 -4.24707,3.62385 -2.6775,1.29259 -6.09362,1.29259 z"
         id="text112"
         style="font-size:47.2717px;line-height:1.2;font-family:'Adwaita Sans';-inkscape-font-specification:'Adwaita Sans';letter-spacing:0px;word-spacing:0px;stroke-width:8;stroke-linecap:round"
         aria-label="3" />
      <path
         d="m 697.14508,435.03143 v -3.41612 l 16.45739,-22.66641 h 2.539 v 4.66254 h -1.47724 l -12.81044,17.68073 v 0.0462 h 22.08936 v 3.6931 z m 17.56532,8.30948 v -9.32508 -1.61573 -23.4512 h 3.97008 v 34.39201 z"
         id="text113"
         style="font-size:47.2717px;line-height:1.2;font-family:'Adwaita Sans';-inkscape-font-specification:'Adwaita Sans';letter-spacing:0px;word-spacing:0px;stroke-width:8;stroke-linecap:round"
         aria-label="4" />
      <path
         d="m 785.95392,443.80255 q -3.30071,0 -5.93205,-1.36183 -2.63133,-1.38491 -4.2009,-3.73927 -1.56957,-2.35435 -1.70806,-5.33191 h 4.15474 q 0.18465,1.93888 1.20026,3.46228 1.03868,1.5234 2.70058,2.40052 1.68497,0.87711 3.78543,0.87711 2.23894,0 3.90083,-1.03869 1.68498,-1.03868 2.63134,-2.83907 0.94636,-1.82347 0.94636,-4.15474 0,-2.33127 -0.9002,-4.13166 -0.90019,-1.80038 -2.51592,-2.81599 -1.61573,-1.03868 -3.76235,-1.03868 -2.83907,0 -4.87028,1.15409 -2.0312,1.13102 -2.83907,3.3238 h -3.99317 l 1.1541,-19.61961 h 19.85042 v 3.6931 h -16.08807 l -0.83095,11.14855 h 0.0462 q 1.63882,-1.75422 3.64694,-2.58517 2.00812,-0.85403 4.43172,-0.85403 2.37744,0 4.3394,0.85403 1.96196,0.85403 3.36995,2.4236 1.43108,1.56957 2.19278,3.71619 0.78478,2.12353 0.78478,4.68562 0,3.46228 -1.45415,6.1167 -1.43108,2.65441 -4.01625,4.15474 -2.58517,1.50032 -6.02437,1.50032 z"
         id="text114"
         style="font-size:47.2717px;line-height:1.2;font-family:'Adwaita Sans';-inkscape-font-specification:'Adwaita Sans';letter-spacing:0px;word-spacing:0px;stroke-width:8;stroke-linecap:round"
         aria-label="5" />
      <path
         d="m 862.62192,443.89488 q -2.86215,0 -5.07801,-1.08485 -2.21586,-1.08485 -3.76235,-3.16222 -1.52341,-2.10045 -2.33127,-5.12418 -0.78479,-3.02373 -0.78479,-6.92456 0,-4.3394 0.73862,-7.87093 0.73863,-3.53153 2.26203,-6.07053 1.54649,-2.53901 3.90084,-3.90084 2.37743,-1.36183 5.6089,-1.36183 3.00064,0 5.26267,1.15409 2.2851,1.13101 3.67002,3.1853 1.40799,2.05429 1.73114,4.80103 h -4.06241 q -0.48472,-2.49284 -2.12354,-3.97008 -1.61573,-1.47724 -4.22398,-1.47724 -2.97757,0 -4.93953,1.70806 -1.93887,1.70806 -2.90831,4.7087 -0.94636,2.97757 -0.94636,6.83224 h 0.0462 q 0.78479,-1.33875 2.10045,-2.30819 1.33875,-0.99252 3.00065,-1.5234 1.68498,-0.55397 3.53153,-0.55397 3.11605,0 5.53965,1.50033 2.44668,1.47724 3.85468,4.06241 1.40799,2.56209 1.40799,5.83971 0,3.39304 -1.47724,6.00129 -1.45416,2.60826 -4.03933,4.0855 -2.58517,1.45416 -5.97821,1.45416 z m 0,-3.6931 q 2.07737,0 3.76235,-1.03869 1.70806,-1.06177 2.70058,-2.83907 1.0156,-1.80039 1.0156,-3.97009 0,-2.16969 -0.96944,-3.90083 -0.96944,-1.75423 -2.63133,-2.76983 -1.6619,-1.03869 -3.73927,-1.03869 -1.56957,0 -2.95448,0.60013 -1.36183,0.60013 -2.40051,1.6619 -1.03869,1.06177 -1.63882,2.46976 -0.57705,1.408 -0.57705,3.02373 0,2.14661 0.99253,3.92392 1.0156,1.7773 2.70058,2.83907 1.68497,1.03869 3.73926,1.03869 z"
         id="text115"
         style="font-size:47.2717px;line-height:1.2;font-family:'Adwaita Sans';-inkscape-font-specification:'Adwaita Sans';letter-spacing:0px;word-spacing:0px;stroke-width:8;stroke-linecap:round"
         aria-label="6" />
      <path
         d="m 928.4412,443.34091 15.51102,-30.67582 v -0.0231 h -17.88846 v -3.6931 h 22.06628 v 3.92392 l -15.32637,30.46809 z"
         id="text121"
         style="font-size:47.2717px;line-height:1.2;font-family:'Adwaita Sans';-inkscape-font-specification:'Adwaita Sans';letter-spacing:0px;word-spacing:0px;stroke-width:8;stroke-linecap:round"
         aria-label="7" />
      <path
         d="m 1014.9882,444.44883 q -3.4161,0 -6.0475,-1.24642 -2.6313,-1.24642 -4.1316,-3.4392 -1.5003,-2.19278 -1.5003,-5.00877 0,-2.30819 0.9694,-4.2009 0.9925,-1.9158 2.6544,-3.13914 1.685,-1.24642 3.7624,-1.50032 v 0.0231 q -2.6775,-0.48472 -4.4087,-2.58517 -1.7311,-2.12353 -1.7311,-5.17034 0,-2.65442 1.3618,-4.73179 1.3618,-2.10045 3.7162,-3.30071 2.3543,-1.20026 5.355,-1.20026 2.9776,0 5.3319,1.20026 2.3544,1.20026 3.6931,3.30071 1.3618,2.07737 1.3618,4.73179 0,3.02372 -1.7311,5.14726 -1.7311,2.12353 -4.3625,2.60825 v -0.0231 q 2.0774,0.2539 3.7393,1.50032 1.685,1.24642 2.6544,3.16222 0.9925,1.89271 0.9925,4.17782 0,2.81599 -1.5003,5.00877 -1.5003,2.19278 -4.1317,3.4392 -2.6313,1.24642 -6.0474,1.24642 z m 0,-3.6931 q 2.3082,0 3.9932,-0.7617 1.708,-0.7617 2.6313,-2.14662 0.9463,-1.40799 0.9463,-3.27762 0,-1.93888 -0.9694,-3.43921 -0.9694,-1.50032 -2.6775,-2.35435 -1.7081,-0.85403 -3.9239,-0.85403 -2.2159,0 -3.947,0.85403 -1.7081,0.85403 -2.7006,2.35435 -0.9694,1.50033 -0.9694,3.43921 0,1.86963 0.9463,3.27762 0.9464,1.38492 2.6544,2.14662 1.7081,0.7617 4.0163,0.7617 z m 0,-16.38814 q 1.8927,0 3.3238,-0.73862 1.4311,-0.73862 2.2389,-2.07737 0.8079,-1.33875 0.8079,-3.09297 0,-1.75422 -0.8079,-3.06989 -0.7848,-1.31567 -2.2158,-2.05429 -1.4311,-0.73862 -3.3469,-0.73862 -1.9158,0 -3.37,0.73862 -1.431,0.73862 -2.2389,2.05429 -0.8079,1.31567 -0.8079,3.06989 0,1.75422 0.8079,3.09297 0.8079,1.31567 2.262,2.07737 1.4542,0.73862 3.3469,0.73862 z"
         id="text122"
         style="font-size:47.2717px;line-height:1.2;font-family:'Adwaita Sans';-inkscape-font-specification:'Adwaita Sans';letter-spacing:0px;word-spacing:0px;stroke-width:8;stroke-linecap:round"
         aria-label="8" />
    </g>
    <path
       d="m 960.41899,791.36558 c 0.7031,-0.7969 1.0469,-1.8438 0.9844,-2.8907 -0.078,-1.0625 -0.5626,-2.0469 -1.3594,-2.75004 -0.7969,-0.70314 -1.8438,-1.0625 -2.9063,-0.98438 -1.0625,0.0624 -2.047,0.5625 -2.7501,1.35938 l -25.1879,28.78173 -8.9689,-8.98453 c -1.5625,-1.5625 -4.0938,-1.5625 -5.6563,0 -0.75,0.75002 -1.1719,1.78128 -1.1719,2.84382 0,1.06247 0.4219,2.07813 1.1719,2.82815 l 12.0002,12.00018 c 0.7812,0.78126 1.8594,1.20314 2.9688,1.1719 1.0937,-0.0468 2.1406,-0.53124 2.875,-1.37502 z m 0,0"
       fill="#222222"
       id="path122"
       style="fill:#000000;fill-opacity:1;stroke-width:1" />
    <path
       d="m 1038.0006,655.18631 c 0.7031,-0.7969 1.0469,-1.8438 0.9844,-2.8907 -0.078,-1.0625 -0.5626,-2.0469 -1.3594,-2.75004 -0.7969,-0.70314 -1.8438,-1.0625 -2.9063,-0.98438 -1.0625,0.0624 -2.047,0.5625 -2.7501,1.35938 l -25.1879,28.78173 -8.96891,-8.98453 c -1.5625,-1.5625 -4.0938,-1.5625 -5.6563,0 -0.75,0.75002 -1.1719,1.78128 -1.1719,2.84382 0,1.06247 0.4219,2.07813 1.1719,2.82815 l 12.00021,12.00018 c 0.7812,0.78126 1.8594,1.20314 2.9688,1.1719 1.0937,-0.0468 2.1406,-0.53124 2.875,-1.37502 z m 0,0"
       fill="#222222"
       id="path123"
       style="fill:#000000;fill-opacity:1;stroke-width:1" />
    <path
       d="m 915.99999,640.16276 c -1.0625,0 -2.0781,0.42188 -2.8281,1.17188 -1.5626,1.56248 -1.5626,4.09376 0,5.65624 l 17.1718,17.17188 -17.1718,17.17185 c -1.5626,1.56248 -1.5626,4.09376 0,5.65624 1.5624,1.56252 4.0937,1.56252 5.6562,0 l 17.1719,-17.17187 17.1719,17.17187 c 1.5624,1.56252 4.0937,1.56252 5.6562,0 1.5625,-1.56248 1.5625,-4.09376 0,-5.65624 l -17.1719,-17.17185 17.1719,-17.17188 c 1.5625,-1.56248 1.5625,-4.09376 0,-5.65624 -0.75,-0.75 -1.7656,-1.17188 -2.8281,-1.17188 -1.0625,0 -2.0781,0.42188 -2.8281,1.17188 l -17.1719,17.17188 -17.1719,-17.17188 c -0.75,-0.75 -1.7656,-1.17188 -2.8281,-1.17188 z m 0,0"
       fill="#222222"
       id="path124"
       style="fill:#e01b24;fill-opacity:1;stroke-width:1" />
    <path
       d="m 932.08929,705.9403 c -8.2187,0 -14.8125,6.01564 -19.7343,11.93746 -2.4531,2.96876 -4.4844,6.03128 -5.9375,8.71876 -0.7344,1.34376 -1.3281,2.59376 -1.7656,3.78124 -0.4219,1.17188 -0.7969,2.14064 -0.7344,3.71874 0.1092,2.81252 1.1719,4.64064 2.6406,7.34375 1.4688,2.68746 3.4688,5.71874 5.8906,8.64062 4.8594,5.87498 11.3125,11.78122 19.4063,11.79682 l 20.2187,0.0624 c 8.7968,0.032 16.0156,-7.21876 16.0156,-15.99998 v -23.99993 c 0,-8.78122 -7.2188,-15.99998 -16,-15.99998 z m 0,8 h 20 c 4.375,0 8,3.62498 8,7.99998 v 23.99995 c 0,4.375 -3.625,8.01562 -8,7.99998 l -20.2031,-0.0624 c -3.6875,0 -9.125,-3.875 -13.2656,-8.87498 -2.0781,-2.5156 -3.8438,-5.18747 -5.0469,-7.40621 -0.9062,-1.67188 -1.4218,-3.375 -1.5937,-3.81248 0.032,-0.1564 0.078,-0.3748 0.172,-0.625 0.2656,-0.68752 0.7032,-1.65628 1.2969,-2.75 1.1875,-2.18752 2.9687,-4.87498 5.0625,-7.40628 4.2186,-5.07822 9.7967,-9.06258 13.5779,-9.06258 z m 0.032,8.06246 c -1.0468,0 -2.0781,0.40628 -2.8281,1.15628 -1.5469,1.56248 -1.5469,4.10936 0,5.65624 l 5.1719,5.18746 -5.1719,5.15628 c -1.5469,1.56248 -1.5469,4.10935 0,5.65621 1.5625,1.56248 4.0938,1.56248 5.6562,0 l 5.1719,-5.15621 5.1719,5.15621 c 1.5625,1.56248 4.0938,1.56248 5.6562,0 1.5625,-1.54686 1.5625,-4.09373 0,-5.65621 l -5.1718,-5.15628 5.1718,-5.18746 c 1.5625,-1.54688 1.5625,-4.09376 0,-5.65624 -0.75,-0.75 -1.7656,-1.15628 -2.8281,-1.15628 -1.0469,0 -2.0781,0.40628 -2.8281,1.15628 l -5.1719,5.18748 -5.1719,-5.18748 c -0.7499,-0.75 -1.7655,-1.15628 -2.8281,-1.15628 z m 0,0"
       fill="#222222"
       id="path125"
       style="fill:#000000;fill-opacity:1;stroke-width:1" />
    <path
       style="fill:none;fill-opacity:1;stroke:#000000;stroke-width:8;stroke-linecap:round;stroke-dasharray:none;stroke-dashoffset:0;stroke-opacity:1"
       d="m 283.02329,386.5029 v -0.57924 a 36.102733,36.102733 0 0 1 36.10273,-36.10273 h 263.71857 a 113.8109,113.8109 0 0 0 79.86295,-32.72557 l 0.5685,-0.55993 0.5685,0.55993 a 113.8109,113.8109 0 0 0 79.86295,32.72557 h 263.71871 a 36.102733,36.102733 0 0 1 36.1027,36.10273 v 0.56084"
       id="path126"
       sodipodi:nodetypes="ccccccc" />
    <path
       d="m 662.41917,286.4444 v -3.48537 l 12.2334,-11.17163 q 2.19278,-2.00812 3.55461,-3.53153 1.38492,-1.5234 2.03121,-2.97756 0.64629,-1.45416 0.64629,-3.20838 0,-2.12354 -0.85403,-3.67002 -0.85403,-1.54649 -2.4236,-2.37744 -1.56957,-0.83095 -3.76234,-0.83095 -2.35436,0 -4.01625,0.99252 -1.63882,0.96944 -2.51593,2.76983 -0.87711,1.77731 -0.87711,4.22399 h -3.87776 q 0,-3.4392 1.38492,-6.07054 1.40799,-2.63133 3.947,-4.10858 2.53901,-1.50032 5.93204,-1.50032 3.23147,0 5.70123,1.33875 2.46976,1.31567 3.87776,3.67002 1.40799,2.33127 1.40799,5.40116 0,2.21586 -0.80786,4.17782 -0.80787,1.93888 -2.46977,3.90084 -1.63881,1.96196 -4.17782,4.27015 l -9.302,8.44797 v 0.0462 h 16.96519 v 3.6931 z m 47.77951,0.55396 q -2.60826,0 -4.73179,-0.85403 -2.12353,-0.85403 -3.4392,-2.58517 -1.31567,-1.75422 -1.47724,-4.40864 h 3.87775 q 0.20774,2.1697 1.6619,3.32379 1.45416,1.1541 4.01625,1.1541 2.53901,0 3.99316,-1.06177 1.47724,-1.06177 1.47724,-2.6775 0,-1.38491 -1.0156,-2.21586 -1.0156,-0.83095 -2.65442,-1.20026 l -3.92392,-0.92327 q -3.39303,-0.80787 -5.14726,-2.53901 -1.73114,-1.73114 -1.73114,-4.38556 0,-2.07737 1.10793,-3.67002 1.13102,-1.61573 3.11606,-2.51592 2.00812,-0.92328 4.61637,-0.92328 2.53901,0 4.54714,0.96944 2.0312,0.94636 3.20838,2.70058 1.20026,1.75422 1.2695,4.17782 h -3.83159 q -0.0231,-1.93888 -1.43108,-3.20838 -1.40799,-1.2695 -3.76235,-1.2695 -2.23894,0 -3.57769,1.08484 -1.33875,1.08485 -1.33875,2.65442 0,1.38491 1.01561,2.23894 1.0156,0.83095 2.76982,1.24643 l 3.92392,0.92327 q 3.50845,0.83095 5.14726,2.49285 1.63882,1.63881 1.63882,4.27014 0,2.26203 -1.22334,3.87776 -1.22334,1.61573 -3.34688,2.46976 -2.10045,0.85403 -4.75486,0.85403 z"
       id="text126"
       style="font-size:47.2717px;line-height:1.2;font-family:'Adwaita Sans';-inkscape-font-specification:'Adwaita Sans';letter-spacing:0px;word-spacing:0px;stroke-width:8;stroke-linecap:round"
       aria-label="2 s" />
    <path
       d="m 623.02196,253.25051 c -0.5937,-0.01 -1.1563,0.2501 -1.5469,0.6954 -0.3828,0.4531 -0.5469,1.0469 -0.4531,1.6329 v 5.672 h 4.0001 v -3.8282 c 4.758,0.7969 8.6409,4.3907 9.7112,9.2268 1.2266,5.508 -1.5313,11.0941 -6.6408,13.477 -5.1095,2.3829 -11.1566,0.9063 -14.5942,-3.5704 -3.4298,-4.4767 -3.2892,-10.7035 0.3281,-15.0161 0.711,-0.8516 0.6016,-2.1095 -0.2422,-2.8204 -0.8516,-0.711 -2.1094,-0.6016 -2.8204,0.2422 -4.8126,5.7423 -4.9923,14.0863 -0.4375,20.024 4.5627,5.9455 12.6645,7.9299 19.4538,4.7658 6.7892,-3.1642 10.4846,-10.6488 8.8596,-17.9615 -1.6172,-7.3205 -8.1253,-12.5395 -15.6177,-12.5395 z m -6.0236,7.9769 c -0.8125,0.01 -1.5391,0.5 -1.8516,1.25 -0.3047,0.7578 -0.125,1.6172 0.4609,2.1876 l 3.5548,3.5548 c -0.3672,1.375 0.023,2.8516 1.0313,3.8595 1.5626,1.5625 4.0939,1.5625 5.6564,0 1.5626,-1.5626 1.5626,-4.0939 0,-5.6565 -1.0078,-1.0078 -2.4844,-1.3984 -3.8594,-1.0312 l -3.5549,-3.5548 c -0.375,-0.3907 -0.8906,-0.6016 -1.4375,-0.6094 z m 0,0"
       fill="#222222"
       id="path127"
       style="fill:#000000;fill-opacity:1;stroke-width:1" />
    <path
       d="m 1350.4358,772.66968 42.9792,-84.72046 v -0.13753 h -49.9934 v -17.60425 h 71.311 v 17.39795 l -42.8416,85.06429 z M 1465.001,670.20744 v 102.46224 h -20.3549 v -83.00129 h -0.1376 l -24.0683,15.26619 v -18.56699 l 25.3749,-16.16015 z m 40.1597,50.95605 q -6.9454,0 -12.3092,-3.16326 -5.3638,-3.16326 -8.3896,-8.80213 -3.0257,-5.70762 -3.0257,-13.27195 v -2.063 q 0,-7.56432 3.0257,-13.20318 3.0258,-5.70763 8.3896,-8.8709 5.3638,-3.23203 12.3092,-3.23203 7.0142,0 12.378,3.23203 5.3638,3.16327 8.3895,8.8709 3.0257,5.63886 3.0257,13.20318 v 2.063 q 0,7.56433 -3.0257,13.27195 -3.0257,5.63887 -8.3895,8.80213 -5.3638,3.16326 -12.378,3.16326 z m 0,-12.58428 q 4.1948,0 6.6704,-3.16327 2.5443,-3.23203 2.5443,-9.48979 v -2.063 q 0,-6.25776 -2.5443,-9.48979 -2.4756,-3.3008 -6.6704,-3.3008 -4.126,0 -6.6704,3.3008 -2.4756,3.23203 -2.4756,9.48979 v 2.063 q 0,6.25776 2.4756,9.48979 2.5444,3.16327 6.6704,3.16327 z m 66.9787,65.74087 q -7.0142,0 -12.378,-3.16327 -5.3638,-3.16326 -8.3895,-8.87089 -3.0258,-5.70763 -3.0258,-13.20319 v -2.06299 q 0,-7.56433 3.0258,-13.20319 3.0257,-5.70763 8.3895,-8.87089 5.3638,-3.23203 12.378,-3.23203 7.0142,0 12.3092,3.23203 5.3638,3.16326 8.3895,8.87089 3.0945,5.63886 3.0945,13.20319 v 2.06299 q 0,7.49556 -3.0945,13.20319 -3.0257,5.70763 -8.3895,8.87089 -5.295,3.16327 -12.3092,3.16327 z m 0,-12.58429 q 4.126,0 6.6016,-3.16327 2.5443,-3.23203 2.5443,-9.48979 v -2.06299 q 0,-6.32653 -2.5443,-9.55856 -2.4756,-3.23203 -6.6016,-3.23203 -4.1948,0 -6.6704,3.23203 -2.4756,3.23203 -2.4756,9.55856 v 2.06299 q 0,6.25776 2.4756,9.48979 2.4756,3.16327 6.6704,3.16327 z m -76.2622,10.93389 70.417,-102.46224 h 14.9911 l -70.417,102.46224 z"
       id="text117"
       style="font-weight:bold;font-size:140.834px;line-height:1.2;font-family:'Adwaita Sans';-inkscape-font-specification:'Adwaita Sans Bold';letter-spacing:0px;word-spacing:0px;stroke-width:8"
       aria-label="71%" />
    <path
       style="font-size:36.8055px;line-height:1.2;font-family:'Adwaita Sans';-inkscape-font-specification:'Adwaita Sans';letter-spacing:0px;word-spacing:0px;stroke-width:8"
       d="m 1395.3023,820.9895 9.8843,-26.77744 h 3.6662 l 9.7764,26.77744 h -3.4505 l -5.6251,-16.13835 q -0.5571,-1.59945 -1.258,-3.6482 -0.6829,-2.06671 -1.7432,-5.4094 h 0.9345 q -1.0603,3.34269 -1.7612,5.4094 -0.6829,2.04875 -1.258,3.6482 l -5.7868,16.13835 z m 5.1039,-7.51206 v -2.87543 h 13.1191 v 2.87543 z m 27.9635,7.94338 q -2.6238,0 -4.6186,-1.258 -1.9769,-1.27598 -3.0911,-3.50443 -1.0963,-2.22846 -1.0963,-5.12186 0,-2.91138 1.0963,-5.15781 1.1142,-2.24642 3.0911,-3.5224 1.9948,-1.27597 4.6186,-1.27597 1.6175,0 2.9833,0.5032 1.3838,0.48523 2.4261,1.3838 1.0604,0.8806 1.7253,2.08469 0.6649,1.20408 0.8626,2.6418 h -3.0911 q -0.1617,-0.84466 -0.5571,-1.54554 -0.3953,-0.70089 -1.0243,-1.20409 -0.6111,-0.52117 -1.4378,-0.80871 -0.8266,-0.28755 -1.887,-0.28755 -1.7791,0 -3.0731,0.89857 -1.2759,0.8806 -1.9589,2.49803 -0.6829,1.61743 -0.6829,3.79198 0,2.15657 0.6829,3.75603 0.683,1.59945 1.9589,2.48005 1.276,0.88061 3.0731,0.88061 1.0604,0 1.8691,-0.26958 0.8087,-0.26957 1.3838,-0.77277 0.593,-0.52117 0.9884,-1.22206 0.3954,-0.71885 0.611,-1.58148 h 3.145 q -0.1977,1.40177 -0.8626,2.60586 -0.6649,1.20408 -1.7253,2.10265 -1.0603,0.89858 -2.4441,1.40178 -1.3658,0.5032 -2.9653,0.5032 z m 19.2475,0 q -2.6239,0 -4.6187,-1.258 -1.9769,-1.27598 -3.0911,-3.50443 -1.0963,-2.22846 -1.0963,-5.12186 0,-2.91138 1.0963,-5.15781 1.1142,-2.24642 3.0911,-3.5224 1.9948,-1.27597 4.6187,-1.27597 1.6174,0 2.9832,0.5032 1.3838,0.48523 2.4262,1.3838 1.0603,0.8806 1.7252,2.08469 0.665,1.20408 0.8626,2.6418 h -3.091 q -0.1618,-0.84466 -0.5572,-1.54554 -0.3953,-0.70089 -1.0243,-1.20409 -0.6111,-0.52117 -1.4377,-0.80871 -0.8267,-0.28755 -1.887,-0.28755 -1.7792,0 -3.0732,0.89857 -1.2759,0.8806 -1.9589,2.49803 -0.6829,1.61743 -0.6829,3.79198 0,2.15657 0.6829,3.75603 0.683,1.59945 1.9589,2.48005 1.276,0.88061 3.0732,0.88061 1.0603,0 1.869,-0.26958 0.8087,-0.26957 1.3838,-0.77277 0.593,-0.52117 0.9884,-1.22206 0.3954,-0.71885 0.611,-1.58148 h 3.145 q -0.1976,1.40177 -0.8626,2.60586 -0.6649,1.20408 -1.7252,2.10265 -1.0604,0.89858 -2.4442,1.40178 -1.3658,0.5032 -2.9652,0.5032 z m 18.3847,-0.0719 q -1.9049,0 -3.5044,-0.82669 -1.5815,-0.84465 -2.534,-2.516 -0.9345,-1.68931 -0.9345,-4.20531 v -11.78926 h 3.0552 v 11.5736 q 0,2.46209 1.1861,3.72009 1.1861,1.24003 3.3067,1.24003 1.3838,0 2.516,-0.55712 1.1322,-0.55711 1.7972,-1.7612 0.6829,-1.20408 0.6829,-3.10906 v -11.10634 h 3.0551 v 18.97783 h -2.9832 v -4.60069 h 0.8626 q -0.9345,2.55195 -2.6059,3.75603 -1.6533,1.20409 -3.8998,1.20409 z m 13.1551,-0.35943 v -18.97783 h 2.9114 v 2.98325 h 0.072 q 0.5211,-1.47365 1.6533,-2.37223 1.1322,-0.89857 2.9114,-0.89857 0.4134,0 0.7548,0.036 0.3594,0.0359 0.5392,0.0719 v 3.05515 q -0.1798,-0.0539 -0.7009,-0.1258 -0.5032,-0.0899 -1.1682,-0.0899 -1.0423,0 -1.9409,0.48523 -0.8986,0.48523 -1.4377,1.5096 -0.5391,1.02437 -0.5391,2.6418 v 11.68143 z m 17.0729,0.28754 q -1.887,0 -3.3786,-0.64697 -1.4917,-0.64697 -2.3723,-1.92294 -0.8626,-1.29394 -0.8626,-3.18094 0,-1.63541 0.629,-2.65978 0.647,-1.02437 1.7073,-1.59945 1.0783,-0.59306 2.4261,-0.89858 1.3659,-0.30551 2.7856,-0.48523 1.8151,-0.2516 2.8575,-0.3774 1.0423,-0.1258 1.4736,-0.41334 0.4493,-0.28754 0.4493,-1.0064 v -0.17971 q 0,-1.04235 -0.5032,-1.83309 -0.4852,-0.80871 -1.4377,-1.258 -0.9345,-0.46726 -2.2644,-0.46726 -1.3119,0 -2.3363,0.44929 -1.0064,0.43131 -1.6174,1.18611 -0.5931,0.7548 -0.665,1.70729 h -3.109 q 0.09,-1.74323 1.0783,-3.09109 0.9884,-1.36583 2.6957,-2.15657 1.7073,-0.79074 3.9537,-0.79074 1.6534,0 2.9832,0.44928 1.3479,0.44929 2.2824,1.27598 0.9525,0.82668 1.4557,1.97685 0.5032,1.15017 0.5032,2.55195 v 13.0832 h -3.0192 v -2.69571 h -0.072 q -0.3414,0.68291 -1.0064,1.3838 -0.6649,0.68291 -1.7971,1.15017 -1.1143,0.44928 -2.8395,0.44928 z m 0.4313,-2.73165 q 1.869,0 3.0372,-0.66495 1.1681,-0.68291 1.7073,-1.7612 0.5391,-1.07828 0.5391,-2.31831 v -2.37223 q -0.1797,0.16174 -0.6649,0.30551 -0.4673,0.14377 -1.1682,0.28755 -0.6829,0.1258 -1.4916,0.2516 -0.7908,0.1258 -1.5995,0.23362 -1.0962,0.14378 -2.0847,0.5032 -0.9704,0.34146 -1.5814,0.98843 -0.6111,0.629 -0.6111,1.70729 0,0.8806 0.4673,1.52757 0.4852,0.629 1.3658,0.97046 0.8806,0.34146 2.0847,0.34146 z m 20.6671,2.87543 q -2.6238,0 -4.6186,-1.258 -1.9769,-1.27598 -3.0911,-3.50443 -1.0963,-2.22846 -1.0963,-5.12186 0,-2.91138 1.0963,-5.15781 1.1142,-2.24642 3.0911,-3.5224 1.9948,-1.27597 4.6186,-1.27597 1.6175,0 2.9833,0.5032 1.3838,0.48523 2.4262,1.3838 1.0603,0.8806 1.7252,2.08469 0.665,1.20408 0.8626,2.6418 h -3.0911 q -0.1617,-0.84466 -0.5571,-1.54554 -0.3953,-0.70089 -1.0243,-1.20409 -0.6111,-0.52117 -1.4378,-0.80871 -0.8266,-0.28755 -1.887,-0.28755 -1.7791,0 -3.0731,0.89857 -1.2759,0.8806 -1.9589,2.49803 -0.6829,1.61743 -0.6829,3.79198 0,2.15657 0.6829,3.75603 0.683,1.59945 1.9589,2.48005 1.276,0.88061 3.0731,0.88061 1.0604,0 1.8691,-0.26958 0.8087,-0.26957 1.3838,-0.77277 0.593,-0.52117 0.9884,-1.22206 0.3954,-0.71885 0.611,-1.58148 h 3.145 q -0.1976,1.40177 -0.8626,2.60586 -0.6649,1.20408 -1.7252,2.10265 -1.0604,0.89858 -2.4442,1.40178 -1.3658,0.5032 -2.9653,0.5032 z m 10.8368,7.08074 v -2.69571 h 1.869 q 0.5931,0 1.0424,-0.2516 0.4672,-0.23363 0.8446,-0.73683 0.3774,-0.5032 0.683,-1.29395 l 1.0423,-2.69571 -7.3503,-18.81609 h 3.3067 l 4.0975,10.92663 q 0.5212,1.36583 1.0064,2.73166 0.4852,1.36583 0.9345,2.73166 h -0.8087 q 0.4493,-1.36583 0.9345,-2.73166 0.5032,-1.36583 1.0064,-2.73166 l 4.0256,-10.92663 h 3.2529 l -8.7521,22.50023 q -0.5032,1.27598 -1.276,2.15658 -0.7728,0.89857 -1.7792,1.36582 -1.0064,0.46726 -2.2105,0.46726 -0.4672,0 -0.9345,0 -0.4672,0 -0.9345,0 z"
       id="text125"
       aria-label="Accuracy" />
    <path
       d="m 1373.3732,364.77843 v -16.36645 l 45.1109,-64.02171 h 13.272 v 20.21738 h -7.3581 l -30.6011,43.59803 v 0.13753 h 64.0217 v 16.43522 z m 51.1624,22.07408 v -27.02528 -7.35802 -68.07894 h 19.8735 v 102.46224 z m 80.5257,1.6504 q -11.5528,0 -20.3549,-3.64463 -8.7334,-3.7134 -13.6158,-10.31499 -4.8825,-6.6016 -4.8825,-15.19742 0,-7.0142 3.0945,-12.44676 3.0945,-5.43256 8.6646,-8.93966 5.6389,-3.50709 12.9969,-4.40106 v 0.0688 q -9.6961,-1.51287 -15.5412,-7.56433 -5.7764,-6.12022 -5.7764,-15.54125 0,-8.11446 4.4698,-14.37222 4.5386,-6.32653 12.5155,-9.83362 8.0457,-3.57587 18.4295,-3.57587 10.59,0 18.567,3.5071 7.9769,3.5071 12.4467,9.76486 4.4698,6.25776 4.4698,14.50975 0,9.35226 -5.7764,15.47249 -5.7764,6.05146 -15.4724,7.63309 v -0.0688 q 7.358,0.89397 12.9281,4.40106 5.5701,3.5071 8.6646,9.00843 3.1632,5.43256 3.1632,12.37799 0,8.59582 -4.9512,15.19742 -4.8824,6.60159 -13.6845,10.31499 -8.7334,3.64463 -20.3549,3.64463 z m 0,-15.40372 q 5.295,0 9.2835,-1.8567 3.9884,-1.92546 6.189,-5.36379 2.2693,-3.5071 2.2693,-7.97693 0,-4.67613 -2.2693,-8.18323 -2.2693,-3.57586 -6.2578,-5.57009 -3.9885,-2.063 -9.2147,-2.063 -5.1575,0 -9.146,2.063 -3.9884,1.99423 -6.2577,5.57009 -2.2693,3.5071 -2.2693,8.18323 0,4.5386 2.2005,7.97693 2.2693,3.43833 6.2577,5.36379 3.9885,1.8567 9.2148,1.8567 z m 0,-46.69252 q 4.6073,0 8.0457,-1.71917 3.4383,-1.71916 5.295,-4.88243 1.9255,-3.23203 1.9255,-7.42679 0,-4.19476 -1.9255,-7.28926 -1.8567,-3.16326 -5.295,-4.88243 -3.3696,-1.71916 -8.0457,-1.71916 -4.5386,0 -7.977,1.71916 -3.4383,1.71917 -5.3637,4.88243 -1.8567,3.0945 -1.8567,7.28926 0,4.19476 1.8567,7.35803 1.9254,3.16326 5.3637,4.95119 3.4384,1.71917 7.977,1.71917 z"
       id="text119"
       style="font-weight:bold;font-size:140.834px;line-height:1.2;font-family:'Adwaita Sans';-inkscape-font-specification:'Adwaita Sans Bold';letter-spacing:0px;word-spacing:0px;stroke-width:8"
       aria-label="48" />
    <path
       style="font-size:36.8055px;line-height:1.2;font-family:'Adwaita Sans';-inkscape-font-specification:'Adwaita Sans';letter-spacing:0px;word-spacing:0px;stroke-width:8"
       d="m 1324.7625,440.97702 -7.2964,-26.77744 h 3.2708 l 4.3311,16.71344 q 0.3415,1.29394 0.647,2.58788 0.3055,1.29395 0.5931,2.58789 0.2875,1.29394 0.5391,2.58789 h -0.3774 q 0.2696,-1.29395 0.5571,-2.58789 0.2876,-1.29394 0.5931,-2.58789 0.3235,-1.29394 0.6649,-2.58788 l 4.421,-16.71344 h 3.7381 l 4.385,16.71344 q 0.3414,1.29394 0.6649,2.58788 0.3235,1.29395 0.6111,2.58789 0.3055,1.29394 0.575,2.58789 h -0.4313 q 0.2696,-1.29395 0.5571,-2.58789 0.2876,-1.29394 0.6111,-2.58789 0.3235,-1.29394 0.6469,-2.58788 l 4.3132,-16.71344 h 3.3067 l -7.3323,26.77744 h -3.774 l -4.6906,-17.25258 q -0.4852,-1.79714 -0.8985,-3.59428 -0.3954,-1.79715 -0.7728,-3.59429 h 0.6829 q -0.3774,1.79714 -0.7728,3.59429 -0.3953,1.79714 -0.8806,3.59428 l -4.6725,17.25258 z m 35.5116,0.43131 q -2.6239,0 -4.6187,-1.258 -1.9768,-1.27597 -3.0911,-3.50443 -1.0962,-2.22845 -1.0962,-5.12185 0,-2.91138 1.0962,-5.15781 1.1143,-2.24643 3.0911,-3.5224 1.9948,-1.27597 4.6187,-1.27597 2.6418,0 4.6186,1.27597 1.9769,1.27597 3.0732,3.5224 1.1142,2.24643 1.1142,5.15781 0,2.8934 -1.1142,5.12185 -1.0963,2.22846 -3.0732,3.50443 -1.9768,1.258 -4.6186,1.258 z m 0,-2.7676 q 1.7971,0 3.0731,-0.8806 1.276,-0.8806 1.9589,-2.48005 0.6829,-1.61743 0.6829,-3.75603 0,-2.17455 -0.6829,-3.77401 -0.6829,-1.61743 -1.9589,-2.516 -1.276,-0.89857 -3.0731,-0.89857 -1.7792,0 -3.0731,0.89857 -1.276,0.8806 -1.9589,2.49803 -0.6829,1.61743 -0.6829,3.79198 0,2.15657 0.6829,3.75603 0.6829,1.59945 1.9589,2.48005 1.2759,0.8806 3.0731,0.8806 z m 12.3643,2.33629 v -18.97784 h 2.9114 v 2.98326 h 0.072 q 0.5212,-1.47366 1.6534,-2.37223 1.1322,-0.89857 2.9113,-0.89857 0.4134,0 0.7548,0.0359 0.3595,0.0359 0.5392,0.0719 v 3.05514 q -0.1797,-0.0539 -0.7009,-0.1258 -0.5032,-0.0899 -1.1682,-0.0899 -1.0423,0 -1.9409,0.48523 -0.8985,0.48522 -1.4377,1.5096 -0.5391,1.02437 -0.5391,2.6418 v 11.68143 z m 18.7622,0.35943 q -2.4621,0 -4.3311,-1.24003 -1.8511,-1.258 -2.8754,-3.46849 -1.0244,-2.22846 -1.0244,-5.13983 0,-2.92934 1.0244,-5.13983 1.0243,-2.22846 2.8754,-3.46849 1.869,-1.24002 4.3311,-1.24002 1.24,0 2.3543,0.35942 1.1322,0.34146 2.0487,1.04235 0.9165,0.70088 1.5276,1.7612 h 0.036 v -10.60315 h 3.0552 v 26.77744 h -2.9833 v -2.87543 h -0.036 q -0.683,1.09626 -1.6175,1.81512 -0.9345,0.71885 -2.0487,1.06031 -1.0963,0.35943 -2.3363,0.35943 z m 0.4673,-2.74963 q 1.7612,0 3.0551,-0.8806 1.2939,-0.8806 1.9948,-2.48006 0.7009,-1.59946 0.7009,-3.73806 0,-2.15657 -0.7009,-3.75603 -0.7009,-1.59946 -1.9948,-2.48006 -1.2939,-0.8806 -3.0551,-0.8806 -1.6354,0 -2.9114,0.80872 -1.258,0.80871 -1.9769,2.3902 -0.7188,1.58149 -0.7188,3.91777 0,2.31832 0.7188,3.8998 0.7189,1.58149 1.9769,2.3902 1.276,0.80872 2.9114,0.80872 z m 19.6966,2.82151 q -2.0307,0 -3.6841,-0.66494 -1.6534,-0.66494 -2.6777,-2.0128 -1.0244,-1.36583 -1.1502,-3.43254 h 3.0192 q 0.1617,1.68931 1.2939,2.58788 1.1322,0.89858 3.1271,0.89858 1.9768,0 3.109,-0.82669 1.1502,-0.82669 1.1502,-2.08469 0,-1.07828 -0.7907,-1.72526 -0.7908,-0.64697 -2.0668,-0.93451 l -3.0551,-0.71886 q -2.6418,-0.629 -4.0076,-1.97686 -1.3479,-1.34785 -1.3479,-3.41457 0,-1.61743 0.8626,-2.85746 0.8806,-1.258 2.4262,-1.95888 1.5635,-0.71886 3.5943,-0.71886 1.9768,0 3.5403,0.7548 1.5815,0.73683 2.4981,2.10266 0.9345,1.36583 0.9884,3.25283 h -2.9833 q -0.018,-1.5096 -1.1142,-2.49803 -1.0962,-0.98843 -2.9293,-0.98843 -1.7433,0 -2.7856,0.84466 -1.0424,0.84465 -1.0424,2.06671 0,1.07829 0.7908,1.74323 0.7907,0.64697 2.1566,0.97046 l 3.0551,0.71886 q 2.7317,0.64697 4.0076,1.94091 1.276,1.27597 1.276,3.32472 0,1.7612 -0.9525,3.0192 -0.9525,1.258 -2.6058,1.92294 -1.6354,0.66494 -3.7022,0.66494 z m 20.0562,7.08075 v -26.4899 h 2.9832 v 2.80355 h 0.036 q 0.611,-1.06032 1.5455,-1.7612 0.9345,-0.70089 2.0847,-1.04235 1.1502,-0.35942 2.3722,-0.35942 2.4801,0 4.3312,1.24002 1.851,1.24003 2.8754,3.46849 1.0244,2.21049 1.0244,5.13983 0,2.91137 -1.0244,5.13983 -1.0244,2.21049 -2.8754,3.46849 -1.8511,1.24003 -4.3312,1.24003 -1.222,0 -2.3183,-0.35943 -1.0962,-0.34146 -2.0128,-1.06031 -0.9165,-0.71886 -1.5994,-1.81512 h -0.036 v 10.38749 z m 8.5544,-9.90226 q 1.6534,0 2.9114,-0.80872 1.258,-0.80871 1.9768,-2.3902 0.7189,-1.58148 0.7189,-3.8998 0,-2.33628 -0.7189,-3.91777 -0.7188,-1.58149 -1.9768,-2.3902 -1.258,-0.80872 -2.9114,-0.80872 -1.7612,0 -3.0552,0.8806 -1.2939,0.8806 -1.9948,2.48006 -0.7009,1.59946 -0.7009,3.75603 0,2.1386 0.7009,3.73806 0.7009,1.59946 1.9948,2.48006 1.294,0.8806 3.0552,0.8806 z m 20.092,2.82151 q -2.7855,0 -4.7624,-1.27597 -1.9589,-1.27597 -3.0012,-3.50443 -1.0424,-2.24643 -1.0424,-5.10388 0,-2.89341 1.0963,-5.13984 1.0962,-2.24642 3.0372,-3.5224 1.9409,-1.29394 4.4569,-1.29394 1.9768,0 3.5583,0.71886 1.5995,0.71885 2.7317,2.04874 1.1322,1.32989 1.7252,3.16297 0.6111,1.81512 0.6111,4.02561 v 0.84465 h -15.5992 v -2.62383 h 13.8919 l -1.3119,0.91655 q 0,-1.94092 -0.7009,-3.36066 -0.6829,-1.43772 -1.9409,-2.21049 -1.258,-0.79074 -2.9653,-0.79074 -1.6893,0 -2.9473,0.79074 -1.2401,0.77277 -1.941,2.21049 -0.6829,1.41974 -0.6829,3.36066 v 1.29394 q 0,1.95889 0.665,3.46849 0.6829,1.5096 1.9768,2.37223 1.294,0.84465 3.145,0.84465 1.3479,0 2.3723,-0.41334 1.0243,-0.43131 1.6893,-1.18611 0.6829,-0.7548 0.9704,-1.74323 h 3.0552 q -0.3594,1.81511 -1.4916,3.19891 -1.1322,1.36583 -2.8395,2.1386 -1.6893,0.77277 -3.7561,0.77277 z m 11.8971,-0.43131 v -18.97784 h 2.9114 v 2.98326 h 0.072 q 0.5212,-1.47366 1.6534,-2.37223 1.1322,-0.89857 2.9113,-0.89857 0.4134,0 0.7548,0.0359 0.3595,0.0359 0.5392,0.0719 v 3.05514 q -0.1797,-0.0539 -0.7009,-0.1258 -0.5032,-0.0899 -1.1682,-0.0899 -1.0423,0 -1.9409,0.48523 -0.8985,0.48522 -1.4377,1.5096 -0.5391,1.02437 -0.5391,2.6418 v 11.68143 z m 21.4579,0 v -26.77744 h 4.403 l 6.7932,17.28852 q 0.2337,0.57509 0.5571,1.41975 0.3235,0.84465 0.665,1.7612 0.3414,0.91654 0.647,1.74323 0.3055,0.80871 0.4852,1.32988 h -0.7368 q 0.1797,-0.52117 0.4672,-1.32988 0.3055,-0.82669 0.647,-1.74323 0.3414,-0.91655 0.6649,-1.7612 0.3235,-0.84466 0.5392,-1.41975 l 6.6854,-17.28852 h 4.4209 v 26.77744 h -3.1809 V 425.4497 q 0,-0.86263 0,-1.85106 0.018,-0.98843 0.036,-2.03077 0.036,-1.04234 0.054,-2.10266 0.036,-1.06031 0.054,-2.06671 h 0.4492 q -0.4492,1.258 -0.8806,2.44411 -0.4313,1.18612 -0.8266,2.22846 -0.3774,1.04234 -0.7009,1.90497 -0.3235,0.84466 -0.5751,1.47366 l -6.2181,15.52732 h -2.6598 l -6.2541,-15.52732 q -0.2516,-0.629 -0.593,-1.47366 -0.3235,-0.86263 -0.7189,-1.90497 -0.3954,-1.04234 -0.8446,-2.22846 -0.4493,-1.18611 -0.9346,-2.44411 h 0.6111 q 0.036,1.0064 0.054,2.06671 0.018,1.06032 0.036,2.10266 0.036,1.04234 0.036,2.03077 0.018,0.98843 0.018,1.85106 v 15.52732 z m 31.1625,0 v -18.97784 h 3.0551 v 18.97784 z m 1.5276,-22.67995 q -0.8627,0 -1.4737,-0.61103 -0.611,-0.61103 -0.611,-1.47366 0,-0.86263 0.611,-1.47366 0.611,-0.61102 1.4737,-0.61102 0.8626,0 1.4736,0.61102 0.6111,0.61103 0.6111,1.47366 0,0.86263 -0.6111,1.47366 -0.611,0.61103 -1.4736,0.61103 z m 9.1115,11.5736 v 11.10635 h -3.0552 v -18.97784 h 2.9833 v 4.60069 h -0.8626 q 0.9345,-2.56991 2.5879,-3.75603 1.6713,-1.20408 3.9177,-1.20408 1.923,0 3.5045,0.84465 1.5814,0.82669 2.516,2.49803 0.9524,1.67135 0.9524,4.20532 v 11.78926 h -3.0551 v -11.5736 q 0,-2.46209 -1.1861,-3.70212 -1.1682,-1.258 -3.3068,-1.258 -1.3838,0 -2.516,0.55711 -1.1322,0.55712 -1.8151,1.7612 -0.6649,1.18612 -0.6649,3.10906 z m 24.0458,11.46578 q -1.905,0 -3.5045,-0.82669 -1.5815,-0.84465 -2.5339,-2.516 -0.9346,-1.68931 -0.9346,-4.20531 v -11.78927 h 3.0552 v 11.57361 q 0,2.46209 1.1861,3.72009 1.1861,1.24003 3.3068,1.24003 1.3838,0 2.516,-0.55712 1.1322,-0.55711 1.7971,-1.7612 0.6829,-1.20409 0.6829,-3.10906 v -11.10635 h 3.0552 v 18.97784 h -2.9833 v -4.60069 h 0.8626 q -0.9345,2.55195 -2.6058,3.75603 -1.6534,1.20409 -3.8998,1.20409 z m 21.4399,-19.33727 v 2.62383 h -10.2797 v -2.62383 z m -6.901,-5.17577 h 3.0551 v 19.55292 q 0,1.09626 0.4493,1.54555 0.4672,0.43131 1.6354,0.43131 0.4133,0 0.8806,0 0.4852,0 0.8806,0 v 2.62383 q -0.4673,0 -1.0244,0 -0.5571,0 -1.0244,0 -2.4441,0 -3.6482,-1.06031 -1.204,-1.07829 -1.204,-3.21689 z m 17.5401,24.58492 q -2.7856,0 -4.7624,-1.27597 -1.9589,-1.27597 -3.0013,-3.50443 -1.0423,-2.24643 -1.0423,-5.10388 0,-2.89341 1.0962,-5.13984 1.0963,-2.24642 3.0372,-3.5224 1.9409,-1.29394 4.4569,-1.29394 1.9769,0 3.5584,0.71886 1.5994,0.71885 2.7316,2.04874 1.1322,1.32989 1.7253,3.16297 0.611,1.81512 0.611,4.02561 v 0.84465 h -15.5992 v -2.62383 h 13.8919 l -1.3119,0.91655 q 0,-1.94092 -0.7009,-3.36066 -0.6829,-1.43772 -1.9409,-2.21049 -1.258,-0.79074 -2.9653,-0.79074 -1.6893,0 -2.9473,0.79074 -1.24,0.77277 -1.9409,2.21049 -0.6829,1.41974 -0.6829,3.36066 v 1.29394 q 0,1.95889 0.6649,3.46849 0.6829,1.5096 1.9769,2.37223 1.2939,0.84465 3.145,0.84465 1.3479,0 2.3722,-0.41334 1.0244,-0.43131 1.6893,-1.18611 0.683,-0.7548 0.9705,-1.74323 h 3.0551 q -0.3594,1.81511 -1.4916,3.19891 -1.1322,1.36583 -2.8395,2.1386 -1.6893,0.77277 -3.756,0.77277 z"
       id="text120"
       aria-label="Words per Minute" />
    <path
       d="m 1183.8148,303.62114 c -2.094,-0.0624 -4.1252,1.54689 -4.1252,4.00003 v 12.00009 h -20.0002 c -3.328,0 -6.1092,2.25002 -7.078,4.20315 -0.9844,1.96878 -0.922,3.79691 -0.922,3.79691 v 16.00013 c 0,0 -0.064,1.82813 0.922,3.7969 0.9688,1.95314 3.75,4.20316 7.078,4.20316 h 20.0002 v 12.00009 c 0,2.45314 2.0312,4.06251 4.1252,4.00003 0.9528,-0.016 1.9216,-0.3908 2.7028,-1.17189 l 24.0002,-24.00018 c 0.108,-0.1092 0.204,-0.21881 0.296,-0.34361 1.5,-1.89061 2.234,-4.18751 2.234,-6.48441 0,-2.29689 -0.734,-4.59379 -2.234,-6.48441 -0.096,-0.1248 -0.188,-0.2344 -0.296,-0.3436 l -24.0002,-24.00018 c -0.7812,-0.78125 -1.75,-1.15625 -2.7028,-1.17189 z m 3.656,12.00009 c 5.8753,6.40629 11.0625,12.00009 17.0782,18.53138 0.4844,0.60941 0.7032,1.04689 0.7188,1.46877 0,0.42189 -0.236,0.85937 -0.7188,1.46878 -6.0157,6.53129 -11.2029,12.12509 -17.0782,18.53138 l 0.22,-8.00006 v -4.00003 h -28.0002 v -16.00013 h 28.0002 v -4.00003 z m 0,0"
       fill="#222222"
       id="path1-6"
       style="fill:#000000;fill-opacity:1;stroke-width:1" />
    <path
       d="m 1183.8148,697.93795 c -2.094,-0.0624 -4.1252,1.54689 -4.1252,4.00003 v 12.00009 h -20.0002 c -3.328,0 -6.1092,2.25002 -7.078,4.20315 -0.9844,1.96878 -0.922,3.79691 -0.922,3.79691 v 16.00013 c 0,0 -0.064,1.82813 0.922,3.7969 0.9688,1.95314 3.75,4.20316 7.078,4.20316 h 20.0002 v 12.00009 c 0,2.45314 2.0312,4.06251 4.1252,4.00003 0.9528,-0.016 1.9216,-0.3908 2.7028,-1.17189 l 24.0002,-24.00018 c 0.108,-0.1092 0.204,-0.21881 0.296,-0.34361 1.5,-1.89061 2.234,-4.18751 2.234,-6.48441 0,-2.29689 -0.734,-4.59379 -2.234,-6.48441 -0.096,-0.1248 -0.188,-0.2344 -0.296,-0.3436 l -24.0002,-24.00018 c -0.7812,-0.78125 -1.75,-1.15625 -2.7028,-1.17189 z m 3.656,12.00009 c 5.8753,6.40629 11.0625,12.00009 17.0782,18.53138 0.4844,0.60941 0.7032,1.04689 0.7188,1.46877 0,0.42189 -0.236,0.85937 -0.7188,1.46878 -6.0157,6.53129 -11.2029,12.12509 -17.0782,18.53138 l 0.22,-8.00006 v -4.00003 h -28.0002 v -16.00013 h 28.0002 v -4.00003 z m 0,0"
       fill="#222222"
       id="path153"
       style="stroke-width:1" />
  </g>
</svg>
